<mxfile host="app.diagrams.net" modified="2023-09-19T15:38:57.165Z" agent="Mozilla/5.0 (Windows NT 10.0; Win64; x64) AppleWebKit/537.36 (KHTML, like Gecko) Chrome/116.0.0.0 Safari/537.36 OPR/102.0.0.0" etag="9MHNywiybTAxo8H2rMp_" version="21.7.5" type="github" pages="5">
  <diagram name="Page-1" id="RA8yZGv-ZoPuXi_oiTvQ">
    <mxGraphModel dx="-1421" dy="561" grid="1" gridSize="10" guides="1" tooltips="1" connect="1" arrows="1" fold="1" page="1" pageScale="1" pageWidth="827" pageHeight="1169" math="0" shadow="0">
      <root>
        <mxCell id="0" />
        <mxCell id="1" parent="0" />
        <mxCell id="0CS6tqCQIEhZepHbCGoQ-1" value="User" style="swimlane;whiteSpace=wrap;startSize=23;" parent="1" vertex="1">
          <mxGeometry x="3030" y="120" width="240" height="570" as="geometry" />
        </mxCell>
        <mxCell id="0CS6tqCQIEhZepHbCGoQ-2" value="" style="ellipse;shape=startState;fillColor=#000000;strokeColor=#000000;" parent="0CS6tqCQIEhZepHbCGoQ-1" vertex="1">
          <mxGeometry x="105" y="40" width="30" height="30" as="geometry" />
        </mxCell>
        <mxCell id="0CS6tqCQIEhZepHbCGoQ-3" value="" style="edgeStyle=elbowEdgeStyle;elbow=horizontal;verticalAlign=bottom;endArrow=open;endSize=8;strokeColor=#000000;endFill=1;rounded=0;entryX=0.5;entryY=0;entryDx=0;entryDy=0;entryPerimeter=0;" parent="0CS6tqCQIEhZepHbCGoQ-1" edge="1">
          <mxGeometry x="100" y="40" as="geometry">
            <mxPoint x="115" y="100" as="targetPoint" />
            <mxPoint x="114.71428571428578" y="100" as="sourcePoint" />
          </mxGeometry>
        </mxCell>
        <mxCell id="0CS6tqCQIEhZepHbCGoQ-4" value="" style="edgeStyle=elbowEdgeStyle;elbow=horizontal;verticalAlign=bottom;endArrow=open;endSize=8;strokeColor=#000000;endFill=1;rounded=0;entryX=0.5;entryY=0;entryDx=0;entryDy=0;entryPerimeter=0;" parent="0CS6tqCQIEhZepHbCGoQ-1" source="0CS6tqCQIEhZepHbCGoQ-2" edge="1">
          <mxGeometry x="100" y="40" as="geometry">
            <mxPoint x="120" y="100" as="targetPoint" />
            <mxPoint x="155" y="190" as="sourcePoint" />
          </mxGeometry>
        </mxCell>
        <mxCell id="0CS6tqCQIEhZepHbCGoQ-5" value="Login" style="rounded=1;whiteSpace=wrap;html=1;arcSize=40;fontColor=#000000;fillColor=#FFFFFF;strokeColor=#000000;" parent="0CS6tqCQIEhZepHbCGoQ-1" vertex="1">
          <mxGeometry x="80" y="100" width="80" height="40" as="geometry" />
        </mxCell>
        <mxCell id="0CS6tqCQIEhZepHbCGoQ-6" value="Pilih Paket" style="rounded=1;whiteSpace=wrap;html=1;arcSize=40;fontColor=#000000;fillColor=#FFFFFF;strokeColor=#000000;" parent="0CS6tqCQIEhZepHbCGoQ-1" vertex="1">
          <mxGeometry x="80" y="240" width="80" height="40" as="geometry" />
        </mxCell>
        <mxCell id="0CS6tqCQIEhZepHbCGoQ-7" value="" style="edgeStyle=orthogonalEdgeStyle;rounded=0;orthogonalLoop=1;jettySize=auto;html=1;" parent="0CS6tqCQIEhZepHbCGoQ-1" source="0CS6tqCQIEhZepHbCGoQ-8" target="0CS6tqCQIEhZepHbCGoQ-9" edge="1">
          <mxGeometry relative="1" as="geometry" />
        </mxCell>
        <mxCell id="0CS6tqCQIEhZepHbCGoQ-8" value="Konfirmasi Pemesanan" style="rounded=1;whiteSpace=wrap;html=1;arcSize=40;fontColor=#000000;fillColor=#FFFFFF;strokeColor=#000000;" parent="0CS6tqCQIEhZepHbCGoQ-1" vertex="1">
          <mxGeometry x="80" y="320" width="80" height="40" as="geometry" />
        </mxCell>
        <mxCell id="0CS6tqCQIEhZepHbCGoQ-9" value="Submit" style="rounded=1;whiteSpace=wrap;html=1;arcSize=40;fontColor=#000000;fillColor=#FFFFFF;strokeColor=#000000;" parent="0CS6tqCQIEhZepHbCGoQ-1" vertex="1">
          <mxGeometry x="80" y="377.5" width="80" height="40" as="geometry" />
        </mxCell>
        <mxCell id="0CS6tqCQIEhZepHbCGoQ-18" value="Lihat Histori Pemesanan" style="rounded=1;whiteSpace=wrap;html=1;arcSize=40;fontColor=#000000;fillColor=#FFFFFF;strokeColor=#000000;" parent="0CS6tqCQIEhZepHbCGoQ-1" vertex="1">
          <mxGeometry x="80" y="457.5" width="80" height="40" as="geometry" />
        </mxCell>
        <mxCell id="0CS6tqCQIEhZepHbCGoQ-19" value="" style="ellipse;shape=endState;fillColor=#000000;strokeColor=#000000;" parent="0CS6tqCQIEhZepHbCGoQ-1" vertex="1">
          <mxGeometry x="105" y="520" width="30" height="30" as="geometry" />
        </mxCell>
        <mxCell id="0CS6tqCQIEhZepHbCGoQ-25" value="" style="edgeStyle=orthogonalEdgeStyle;rounded=0;orthogonalLoop=1;jettySize=auto;html=1;" parent="0CS6tqCQIEhZepHbCGoQ-1" source="0CS6tqCQIEhZepHbCGoQ-18" target="0CS6tqCQIEhZepHbCGoQ-19" edge="1">
          <mxGeometry relative="1" as="geometry" />
        </mxCell>
        <mxCell id="0CS6tqCQIEhZepHbCGoQ-10" value="Sistem" style="swimlane;whiteSpace=wrap;startSize=23;" parent="1" vertex="1">
          <mxGeometry x="3270" y="120" width="240" height="570" as="geometry" />
        </mxCell>
        <mxCell id="0CS6tqCQIEhZepHbCGoQ-11" value="Ya" style="edgeStyle=orthogonalEdgeStyle;rounded=0;orthogonalLoop=1;jettySize=auto;html=1;entryX=0.5;entryY=0;entryDx=0;entryDy=0;exitX=0.5;exitY=1;exitDx=0;exitDy=0;" parent="0CS6tqCQIEhZepHbCGoQ-10" source="0CS6tqCQIEhZepHbCGoQ-14" target="0CS6tqCQIEhZepHbCGoQ-16" edge="1">
          <mxGeometry x="-0.3333" relative="1" as="geometry">
            <mxPoint x="135" y="180" as="targetPoint" />
            <mxPoint as="offset" />
            <mxPoint x="129.9999999999999" y="155" as="sourcePoint" />
          </mxGeometry>
        </mxCell>
        <mxCell id="0CS6tqCQIEhZepHbCGoQ-14" value="Verifikasi" style="rhombus;whiteSpace=wrap;html=1;" parent="0CS6tqCQIEhZepHbCGoQ-10" vertex="1">
          <mxGeometry x="90" y="80" width="80" height="80" as="geometry" />
        </mxCell>
        <mxCell id="0CS6tqCQIEhZepHbCGoQ-15" value="Validasi" style="rhombus;whiteSpace=wrap;html=1;" parent="0CS6tqCQIEhZepHbCGoQ-10" vertex="1">
          <mxGeometry x="20" y="350" width="80" height="80" as="geometry" />
        </mxCell>
        <mxCell id="0CS6tqCQIEhZepHbCGoQ-16" value="Tampil List Paket" style="rounded=1;whiteSpace=wrap;html=1;arcSize=40;fontColor=#000000;fillColor=#FFFFFF;strokeColor=#000000;" parent="0CS6tqCQIEhZepHbCGoQ-10" vertex="1">
          <mxGeometry x="90" y="180" width="80" height="40" as="geometry" />
        </mxCell>
        <mxCell id="0CS6tqCQIEhZepHbCGoQ-17" value="Tampil Data Pemesanan Terpilih" style="rounded=1;whiteSpace=wrap;html=1;arcSize=40;fontColor=#000000;fillColor=#FFFFFF;strokeColor=#000000;" parent="0CS6tqCQIEhZepHbCGoQ-10" vertex="1">
          <mxGeometry x="90" y="240" width="80" height="40" as="geometry" />
        </mxCell>
        <mxCell id="0CS6tqCQIEhZepHbCGoQ-22" value="Ya" style="edgeStyle=orthogonalEdgeStyle;rounded=0;orthogonalLoop=1;jettySize=auto;html=1;" parent="0CS6tqCQIEhZepHbCGoQ-10" edge="1">
          <mxGeometry x="-0.2" relative="1" as="geometry">
            <mxPoint x="60" y="428.9999999999998" as="sourcePoint" />
            <mxPoint x="60" y="456.5" as="targetPoint" />
            <mxPoint as="offset" />
          </mxGeometry>
        </mxCell>
        <mxCell id="0CS6tqCQIEhZepHbCGoQ-23" value="Tampil Sukses Alert" style="rounded=1;whiteSpace=wrap;html=1;arcSize=40;fontColor=#000000;fillColor=#FFFFFF;strokeColor=#000000;" parent="0CS6tqCQIEhZepHbCGoQ-10" vertex="1">
          <mxGeometry x="20" y="457.5" width="80" height="40" as="geometry" />
        </mxCell>
        <mxCell id="0CS6tqCQIEhZepHbCGoQ-26" style="edgeStyle=orthogonalEdgeStyle;rounded=0;orthogonalLoop=1;jettySize=auto;html=1;entryX=0;entryY=0.5;entryDx=0;entryDy=0;exitX=1;exitY=0.5;exitDx=0;exitDy=0;" parent="1" target="0CS6tqCQIEhZepHbCGoQ-14" edge="1">
          <mxGeometry relative="1" as="geometry">
            <mxPoint x="3190" y="240" as="sourcePoint" />
            <mxPoint x="3350" y="230" as="targetPoint" />
          </mxGeometry>
        </mxCell>
        <mxCell id="0CS6tqCQIEhZepHbCGoQ-27" style="edgeStyle=orthogonalEdgeStyle;rounded=0;orthogonalLoop=1;jettySize=auto;html=1;entryX=0.5;entryY=0;entryDx=0;entryDy=0;exitX=0;exitY=0.5;exitDx=0;exitDy=0;" parent="1" source="0CS6tqCQIEhZepHbCGoQ-16" edge="1">
          <mxGeometry relative="1" as="geometry">
            <mxPoint x="3365" y="320" as="sourcePoint" />
            <mxPoint x="3150" y="360" as="targetPoint" />
            <Array as="points">
              <mxPoint x="3150" y="320" />
            </Array>
          </mxGeometry>
        </mxCell>
        <mxCell id="0CS6tqCQIEhZepHbCGoQ-28" value="Reserve Management" style="text;html=1;align=center;verticalAlign=middle;resizable=0;points=[];autosize=1;strokeColor=none;fillColor=none;" parent="1" vertex="1">
          <mxGeometry x="3200" y="80" width="140" height="30" as="geometry" />
        </mxCell>
        <mxCell id="0CS6tqCQIEhZepHbCGoQ-29" style="edgeStyle=orthogonalEdgeStyle;rounded=0;orthogonalLoop=1;jettySize=auto;html=1;entryX=0;entryY=0.5;entryDx=0;entryDy=0;" parent="1" target="0CS6tqCQIEhZepHbCGoQ-17" edge="1">
          <mxGeometry relative="1" as="geometry">
            <mxPoint x="3190" y="380.0000000000001" as="sourcePoint" />
            <mxPoint x="3365" y="380" as="targetPoint" />
          </mxGeometry>
        </mxCell>
        <mxCell id="0CS6tqCQIEhZepHbCGoQ-30" value="" style="endArrow=classic;html=1;rounded=0;entryX=1;entryY=0.5;entryDx=0;entryDy=0;exitX=1;exitY=0.5;exitDx=0;exitDy=0;" parent="1" source="0CS6tqCQIEhZepHbCGoQ-14" target="0CS6tqCQIEhZepHbCGoQ-2" edge="1">
          <mxGeometry relative="1" as="geometry">
            <mxPoint x="3450" y="240" as="sourcePoint" />
            <mxPoint x="3580" y="322" as="targetPoint" />
            <Array as="points">
              <mxPoint x="3480" y="240" />
              <mxPoint x="3480" y="175" />
            </Array>
          </mxGeometry>
        </mxCell>
        <mxCell id="0CS6tqCQIEhZepHbCGoQ-31" value="Tidak" style="edgeLabel;resizable=0;html=1;align=center;verticalAlign=middle;" parent="0CS6tqCQIEhZepHbCGoQ-30" connectable="0" vertex="1">
          <mxGeometry relative="1" as="geometry">
            <mxPoint x="90" y="65" as="offset" />
          </mxGeometry>
        </mxCell>
        <mxCell id="0CS6tqCQIEhZepHbCGoQ-34" value="" style="edgeStyle=orthogonalEdgeStyle;rounded=0;orthogonalLoop=1;jettySize=auto;html=1;" parent="1" target="0CS6tqCQIEhZepHbCGoQ-15" edge="1">
          <mxGeometry relative="1" as="geometry">
            <mxPoint x="3190" y="510" as="sourcePoint" />
          </mxGeometry>
        </mxCell>
        <mxCell id="0CS6tqCQIEhZepHbCGoQ-107" style="edgeStyle=orthogonalEdgeStyle;rounded=0;orthogonalLoop=1;jettySize=auto;html=1;entryX=0.5;entryY=0;entryDx=0;entryDy=0;exitX=0.5;exitY=1;exitDx=0;exitDy=0;" parent="1" source="0CS6tqCQIEhZepHbCGoQ-17" target="0CS6tqCQIEhZepHbCGoQ-8" edge="1">
          <mxGeometry relative="1" as="geometry">
            <mxPoint x="3365" y="460" as="sourcePoint" />
          </mxGeometry>
        </mxCell>
        <mxCell id="0CS6tqCQIEhZepHbCGoQ-111" style="edgeStyle=orthogonalEdgeStyle;rounded=0;orthogonalLoop=1;jettySize=auto;html=1;entryX=1;entryY=0.5;entryDx=0;entryDy=0;exitX=1;exitY=0.5;exitDx=0;exitDy=0;" parent="1" source="0CS6tqCQIEhZepHbCGoQ-15" target="0CS6tqCQIEhZepHbCGoQ-8" edge="1">
          <mxGeometry relative="1" as="geometry">
            <Array as="points">
              <mxPoint x="3400" y="510" />
              <mxPoint x="3400" y="460" />
            </Array>
          </mxGeometry>
        </mxCell>
        <mxCell id="0CS6tqCQIEhZepHbCGoQ-113" value="Tidak" style="edgeLabel;html=1;align=center;verticalAlign=middle;resizable=0;points=[];" parent="0CS6tqCQIEhZepHbCGoQ-111" vertex="1" connectable="0">
          <mxGeometry x="-0.867" relative="1" as="geometry">
            <mxPoint as="offset" />
          </mxGeometry>
        </mxCell>
        <mxCell id="0CS6tqCQIEhZepHbCGoQ-24" value="" style="edgeStyle=orthogonalEdgeStyle;rounded=0;orthogonalLoop=1;jettySize=auto;html=1;exitX=0;exitY=0.5;exitDx=0;exitDy=0;entryX=1;entryY=0.5;entryDx=0;entryDy=0;" parent="1" source="0CS6tqCQIEhZepHbCGoQ-23" target="0CS6tqCQIEhZepHbCGoQ-18" edge="1">
          <mxGeometry relative="1" as="geometry">
            <mxPoint x="3290" y="607.5" as="sourcePoint" />
            <mxPoint x="3190" y="607.5" as="targetPoint" />
          </mxGeometry>
        </mxCell>
        <mxCell id="0CS6tqCQIEhZepHbCGoQ-114" value="User" style="swimlane;whiteSpace=wrap;startSize=23;" parent="1" vertex="1">
          <mxGeometry x="3640" y="120" width="240" height="550" as="geometry" />
        </mxCell>
        <mxCell id="0CS6tqCQIEhZepHbCGoQ-115" value="" style="ellipse;shape=startState;fillColor=#000000;strokeColor=#000000;" parent="0CS6tqCQIEhZepHbCGoQ-114" vertex="1">
          <mxGeometry x="105" y="40" width="30" height="30" as="geometry" />
        </mxCell>
        <mxCell id="0CS6tqCQIEhZepHbCGoQ-116" value="" style="edgeStyle=elbowEdgeStyle;elbow=horizontal;verticalAlign=bottom;endArrow=open;endSize=8;strokeColor=#000000;endFill=1;rounded=0;entryX=0.5;entryY=0;entryDx=0;entryDy=0;entryPerimeter=0;" parent="0CS6tqCQIEhZepHbCGoQ-114" edge="1">
          <mxGeometry x="100" y="40" as="geometry">
            <mxPoint x="115" y="100" as="targetPoint" />
            <mxPoint x="114.71428571428578" y="100" as="sourcePoint" />
          </mxGeometry>
        </mxCell>
        <mxCell id="0CS6tqCQIEhZepHbCGoQ-117" value="" style="edgeStyle=elbowEdgeStyle;elbow=horizontal;verticalAlign=bottom;endArrow=open;endSize=8;strokeColor=#000000;endFill=1;rounded=0;entryX=0.5;entryY=0;entryDx=0;entryDy=0;entryPerimeter=0;" parent="0CS6tqCQIEhZepHbCGoQ-114" source="0CS6tqCQIEhZepHbCGoQ-115" edge="1">
          <mxGeometry x="100" y="40" as="geometry">
            <mxPoint x="120" y="100" as="targetPoint" />
            <mxPoint x="155" y="190" as="sourcePoint" />
          </mxGeometry>
        </mxCell>
        <mxCell id="0CS6tqCQIEhZepHbCGoQ-118" value="Login" style="rounded=1;whiteSpace=wrap;html=1;arcSize=40;fontColor=#000000;fillColor=#FFFFFF;strokeColor=#000000;" parent="0CS6tqCQIEhZepHbCGoQ-114" vertex="1">
          <mxGeometry x="80" y="100" width="80" height="40" as="geometry" />
        </mxCell>
        <mxCell id="0CS6tqCQIEhZepHbCGoQ-119" value="Lihat Histori Pemesanan" style="rounded=1;whiteSpace=wrap;html=1;arcSize=40;fontColor=#000000;fillColor=#FFFFFF;strokeColor=#000000;" parent="0CS6tqCQIEhZepHbCGoQ-114" vertex="1">
          <mxGeometry x="80" y="200" width="80" height="40" as="geometry" />
        </mxCell>
        <mxCell id="0CS6tqCQIEhZepHbCGoQ-120" value="" style="edgeStyle=orthogonalEdgeStyle;rounded=0;orthogonalLoop=1;jettySize=auto;html=1;" parent="0CS6tqCQIEhZepHbCGoQ-114" source="0CS6tqCQIEhZepHbCGoQ-121" target="0CS6tqCQIEhZepHbCGoQ-122" edge="1">
          <mxGeometry relative="1" as="geometry" />
        </mxCell>
        <mxCell id="0CS6tqCQIEhZepHbCGoQ-121" value="Konfirmasi Pembayaran" style="rounded=1;whiteSpace=wrap;html=1;arcSize=40;fontColor=#000000;fillColor=#FFFFFF;strokeColor=#000000;" parent="0CS6tqCQIEhZepHbCGoQ-114" vertex="1">
          <mxGeometry x="80" y="280" width="80" height="40" as="geometry" />
        </mxCell>
        <mxCell id="0CS6tqCQIEhZepHbCGoQ-122" value="Submit" style="rounded=1;whiteSpace=wrap;html=1;arcSize=40;fontColor=#000000;fillColor=#FFFFFF;strokeColor=#000000;" parent="0CS6tqCQIEhZepHbCGoQ-114" vertex="1">
          <mxGeometry x="80" y="337.5" width="80" height="40" as="geometry" />
        </mxCell>
        <mxCell id="0CS6tqCQIEhZepHbCGoQ-123" value="Lihat Histori Pemesanan" style="rounded=1;whiteSpace=wrap;html=1;arcSize=40;fontColor=#000000;fillColor=#FFFFFF;strokeColor=#000000;" parent="0CS6tqCQIEhZepHbCGoQ-114" vertex="1">
          <mxGeometry x="80" y="417.5" width="80" height="40" as="geometry" />
        </mxCell>
        <mxCell id="0CS6tqCQIEhZepHbCGoQ-124" value="" style="ellipse;shape=endState;fillColor=#000000;strokeColor=#000000;" parent="0CS6tqCQIEhZepHbCGoQ-114" vertex="1">
          <mxGeometry x="105" y="480" width="30" height="30" as="geometry" />
        </mxCell>
        <mxCell id="0CS6tqCQIEhZepHbCGoQ-125" value="" style="edgeStyle=orthogonalEdgeStyle;rounded=0;orthogonalLoop=1;jettySize=auto;html=1;" parent="0CS6tqCQIEhZepHbCGoQ-114" source="0CS6tqCQIEhZepHbCGoQ-123" target="0CS6tqCQIEhZepHbCGoQ-124" edge="1">
          <mxGeometry relative="1" as="geometry" />
        </mxCell>
        <mxCell id="0CS6tqCQIEhZepHbCGoQ-126" value="Sistem" style="swimlane;whiteSpace=wrap;startSize=23;" parent="1" vertex="1">
          <mxGeometry x="3880" y="120" width="240" height="550" as="geometry" />
        </mxCell>
        <mxCell id="0CS6tqCQIEhZepHbCGoQ-128" value="Verifikasi" style="rhombus;whiteSpace=wrap;html=1;" parent="0CS6tqCQIEhZepHbCGoQ-126" vertex="1">
          <mxGeometry x="90" y="80" width="80" height="80" as="geometry" />
        </mxCell>
        <mxCell id="0CS6tqCQIEhZepHbCGoQ-129" value="Validasi" style="rhombus;whiteSpace=wrap;html=1;" parent="0CS6tqCQIEhZepHbCGoQ-126" vertex="1">
          <mxGeometry x="20" y="310" width="80" height="80" as="geometry" />
        </mxCell>
        <mxCell id="0CS6tqCQIEhZepHbCGoQ-131" value="Tampil Data Pemesanan Terpilih" style="rounded=1;whiteSpace=wrap;html=1;arcSize=40;fontColor=#000000;fillColor=#FFFFFF;strokeColor=#000000;" parent="0CS6tqCQIEhZepHbCGoQ-126" vertex="1">
          <mxGeometry x="90" y="200" width="80" height="40" as="geometry" />
        </mxCell>
        <mxCell id="0CS6tqCQIEhZepHbCGoQ-132" value="Ya" style="edgeStyle=orthogonalEdgeStyle;rounded=0;orthogonalLoop=1;jettySize=auto;html=1;" parent="0CS6tqCQIEhZepHbCGoQ-126" edge="1">
          <mxGeometry x="-0.2" relative="1" as="geometry">
            <mxPoint x="60" y="388.9999999999998" as="sourcePoint" />
            <mxPoint x="60" y="416.5" as="targetPoint" />
            <mxPoint as="offset" />
          </mxGeometry>
        </mxCell>
        <mxCell id="0CS6tqCQIEhZepHbCGoQ-133" value="Tampil Sukses Alert" style="rounded=1;whiteSpace=wrap;html=1;arcSize=40;fontColor=#000000;fillColor=#FFFFFF;strokeColor=#000000;" parent="0CS6tqCQIEhZepHbCGoQ-126" vertex="1">
          <mxGeometry x="20" y="417.5" width="80" height="40" as="geometry" />
        </mxCell>
        <mxCell id="0CS6tqCQIEhZepHbCGoQ-134" style="edgeStyle=orthogonalEdgeStyle;rounded=0;orthogonalLoop=1;jettySize=auto;html=1;entryX=0;entryY=0.5;entryDx=0;entryDy=0;exitX=1;exitY=0.5;exitDx=0;exitDy=0;" parent="1" target="0CS6tqCQIEhZepHbCGoQ-128" edge="1">
          <mxGeometry relative="1" as="geometry">
            <mxPoint x="3800" y="240" as="sourcePoint" />
            <mxPoint x="3960" y="230" as="targetPoint" />
          </mxGeometry>
        </mxCell>
        <mxCell id="0CS6tqCQIEhZepHbCGoQ-136" value="Payment Management" style="text;html=1;align=center;verticalAlign=middle;resizable=0;points=[];autosize=1;strokeColor=none;fillColor=none;" parent="1" vertex="1">
          <mxGeometry x="3810" y="80" width="140" height="30" as="geometry" />
        </mxCell>
        <mxCell id="0CS6tqCQIEhZepHbCGoQ-137" style="edgeStyle=orthogonalEdgeStyle;rounded=0;orthogonalLoop=1;jettySize=auto;html=1;entryX=0;entryY=0.5;entryDx=0;entryDy=0;" parent="1" target="0CS6tqCQIEhZepHbCGoQ-131" edge="1">
          <mxGeometry relative="1" as="geometry">
            <mxPoint x="3800" y="340.0000000000001" as="sourcePoint" />
            <mxPoint x="3975" y="340" as="targetPoint" />
          </mxGeometry>
        </mxCell>
        <mxCell id="0CS6tqCQIEhZepHbCGoQ-138" value="" style="endArrow=classic;html=1;rounded=0;entryX=1;entryY=0.5;entryDx=0;entryDy=0;exitX=1;exitY=0.5;exitDx=0;exitDy=0;" parent="1" source="0CS6tqCQIEhZepHbCGoQ-128" target="0CS6tqCQIEhZepHbCGoQ-115" edge="1">
          <mxGeometry relative="1" as="geometry">
            <mxPoint x="4060" y="240" as="sourcePoint" />
            <mxPoint x="4190" y="322" as="targetPoint" />
            <Array as="points">
              <mxPoint x="4090" y="240" />
              <mxPoint x="4090" y="175" />
            </Array>
          </mxGeometry>
        </mxCell>
        <mxCell id="0CS6tqCQIEhZepHbCGoQ-139" value="Tidak" style="edgeLabel;resizable=0;html=1;align=center;verticalAlign=middle;" parent="0CS6tqCQIEhZepHbCGoQ-138" connectable="0" vertex="1">
          <mxGeometry relative="1" as="geometry">
            <mxPoint x="90" y="65" as="offset" />
          </mxGeometry>
        </mxCell>
        <mxCell id="0CS6tqCQIEhZepHbCGoQ-140" value="" style="edgeStyle=orthogonalEdgeStyle;rounded=0;orthogonalLoop=1;jettySize=auto;html=1;" parent="1" target="0CS6tqCQIEhZepHbCGoQ-129" edge="1">
          <mxGeometry relative="1" as="geometry">
            <mxPoint x="3800" y="470" as="sourcePoint" />
          </mxGeometry>
        </mxCell>
        <mxCell id="0CS6tqCQIEhZepHbCGoQ-141" style="edgeStyle=orthogonalEdgeStyle;rounded=0;orthogonalLoop=1;jettySize=auto;html=1;entryX=0.5;entryY=0;entryDx=0;entryDy=0;exitX=0.5;exitY=1;exitDx=0;exitDy=0;" parent="1" source="0CS6tqCQIEhZepHbCGoQ-131" target="0CS6tqCQIEhZepHbCGoQ-121" edge="1">
          <mxGeometry relative="1" as="geometry">
            <mxPoint x="3975" y="420" as="sourcePoint" />
          </mxGeometry>
        </mxCell>
        <mxCell id="0CS6tqCQIEhZepHbCGoQ-142" style="edgeStyle=orthogonalEdgeStyle;rounded=0;orthogonalLoop=1;jettySize=auto;html=1;entryX=1;entryY=0.5;entryDx=0;entryDy=0;exitX=1;exitY=0.5;exitDx=0;exitDy=0;" parent="1" source="0CS6tqCQIEhZepHbCGoQ-129" target="0CS6tqCQIEhZepHbCGoQ-121" edge="1">
          <mxGeometry relative="1" as="geometry">
            <Array as="points">
              <mxPoint x="4010" y="470" />
              <mxPoint x="4010" y="420" />
            </Array>
          </mxGeometry>
        </mxCell>
        <mxCell id="0CS6tqCQIEhZepHbCGoQ-143" value="Tidak" style="edgeLabel;html=1;align=center;verticalAlign=middle;resizable=0;points=[];" parent="0CS6tqCQIEhZepHbCGoQ-142" vertex="1" connectable="0">
          <mxGeometry x="-0.867" relative="1" as="geometry">
            <mxPoint as="offset" />
          </mxGeometry>
        </mxCell>
        <mxCell id="0CS6tqCQIEhZepHbCGoQ-144" value="" style="edgeStyle=orthogonalEdgeStyle;rounded=0;orthogonalLoop=1;jettySize=auto;html=1;exitX=0;exitY=0.5;exitDx=0;exitDy=0;entryX=1;entryY=0.5;entryDx=0;entryDy=0;" parent="1" source="0CS6tqCQIEhZepHbCGoQ-133" target="0CS6tqCQIEhZepHbCGoQ-123" edge="1">
          <mxGeometry relative="1" as="geometry">
            <mxPoint x="3900" y="567.5" as="sourcePoint" />
            <mxPoint x="3800" y="567.5" as="targetPoint" />
          </mxGeometry>
        </mxCell>
        <mxCell id="0CS6tqCQIEhZepHbCGoQ-145" value="User" style="swimlane;whiteSpace=wrap" parent="1" vertex="1">
          <mxGeometry x="4240" y="120" width="240" height="520" as="geometry" />
        </mxCell>
        <mxCell id="0CS6tqCQIEhZepHbCGoQ-146" value="" style="ellipse;shape=startState;fillColor=#000000;strokeColor=#000000;" parent="0CS6tqCQIEhZepHbCGoQ-145" vertex="1">
          <mxGeometry x="105" y="40" width="30" height="30" as="geometry" />
        </mxCell>
        <mxCell id="0CS6tqCQIEhZepHbCGoQ-147" value="" style="edgeStyle=elbowEdgeStyle;elbow=horizontal;verticalAlign=bottom;endArrow=open;endSize=8;strokeColor=#000000;endFill=1;rounded=0;entryX=0.5;entryY=0;entryDx=0;entryDy=0;entryPerimeter=0;" parent="0CS6tqCQIEhZepHbCGoQ-145" edge="1">
          <mxGeometry x="100" y="40" as="geometry">
            <mxPoint x="115" y="100" as="targetPoint" />
            <mxPoint x="114.71428571428578" y="100" as="sourcePoint" />
          </mxGeometry>
        </mxCell>
        <mxCell id="0CS6tqCQIEhZepHbCGoQ-148" value="" style="edgeStyle=elbowEdgeStyle;elbow=horizontal;verticalAlign=bottom;endArrow=open;endSize=8;strokeColor=#000000;endFill=1;rounded=0;entryX=0.5;entryY=0;entryDx=0;entryDy=0;entryPerimeter=0;" parent="0CS6tqCQIEhZepHbCGoQ-145" source="0CS6tqCQIEhZepHbCGoQ-146" edge="1">
          <mxGeometry x="100" y="40" as="geometry">
            <mxPoint x="120" y="100" as="targetPoint" />
            <mxPoint x="155" y="190" as="sourcePoint" />
          </mxGeometry>
        </mxCell>
        <mxCell id="0CS6tqCQIEhZepHbCGoQ-149" value="Login" style="rounded=1;whiteSpace=wrap;html=1;arcSize=40;fontColor=#000000;fillColor=#FFFFFF;strokeColor=#000000;" parent="0CS6tqCQIEhZepHbCGoQ-145" vertex="1">
          <mxGeometry x="80" y="100" width="80" height="40" as="geometry" />
        </mxCell>
        <mxCell id="0CS6tqCQIEhZepHbCGoQ-151" value="" style="edgeStyle=orthogonalEdgeStyle;rounded=0;orthogonalLoop=1;jettySize=auto;html=1;" parent="0CS6tqCQIEhZepHbCGoQ-145" source="0CS6tqCQIEhZepHbCGoQ-152" target="0CS6tqCQIEhZepHbCGoQ-153" edge="1">
          <mxGeometry relative="1" as="geometry" />
        </mxCell>
        <mxCell id="0CS6tqCQIEhZepHbCGoQ-152" value="Input Testimoni" style="rounded=1;whiteSpace=wrap;html=1;arcSize=40;fontColor=#000000;fillColor=#FFFFFF;strokeColor=#000000;" parent="0CS6tqCQIEhZepHbCGoQ-145" vertex="1">
          <mxGeometry x="80" y="240" width="80" height="40" as="geometry" />
        </mxCell>
        <mxCell id="0CS6tqCQIEhZepHbCGoQ-153" value="Submit" style="rounded=1;whiteSpace=wrap;html=1;arcSize=40;fontColor=#000000;fillColor=#FFFFFF;strokeColor=#000000;" parent="0CS6tqCQIEhZepHbCGoQ-145" vertex="1">
          <mxGeometry x="80" y="317.5" width="80" height="40" as="geometry" />
        </mxCell>
        <mxCell id="0CS6tqCQIEhZepHbCGoQ-154" value="Lihat Testimoni" style="rounded=1;whiteSpace=wrap;html=1;arcSize=40;fontColor=#000000;fillColor=#FFFFFF;strokeColor=#000000;" parent="0CS6tqCQIEhZepHbCGoQ-145" vertex="1">
          <mxGeometry x="80" y="397.5" width="80" height="40" as="geometry" />
        </mxCell>
        <mxCell id="0CS6tqCQIEhZepHbCGoQ-155" value="" style="ellipse;shape=endState;fillColor=#000000;strokeColor=#000000;" parent="0CS6tqCQIEhZepHbCGoQ-145" vertex="1">
          <mxGeometry x="105" y="460" width="30" height="30" as="geometry" />
        </mxCell>
        <mxCell id="0CS6tqCQIEhZepHbCGoQ-156" value="" style="edgeStyle=orthogonalEdgeStyle;rounded=0;orthogonalLoop=1;jettySize=auto;html=1;" parent="0CS6tqCQIEhZepHbCGoQ-145" source="0CS6tqCQIEhZepHbCGoQ-154" target="0CS6tqCQIEhZepHbCGoQ-155" edge="1">
          <mxGeometry relative="1" as="geometry" />
        </mxCell>
        <mxCell id="0CS6tqCQIEhZepHbCGoQ-157" value="Sistem" style="swimlane;whiteSpace=wrap;startSize=23;" parent="1" vertex="1">
          <mxGeometry x="4480" y="120" width="240" height="520" as="geometry" />
        </mxCell>
        <mxCell id="0CS6tqCQIEhZepHbCGoQ-158" value="Ya" style="edgeStyle=orthogonalEdgeStyle;rounded=0;orthogonalLoop=1;jettySize=auto;html=1;entryX=0.5;entryY=0;entryDx=0;entryDy=0;exitX=0.5;exitY=1;exitDx=0;exitDy=0;" parent="0CS6tqCQIEhZepHbCGoQ-157" source="0CS6tqCQIEhZepHbCGoQ-159" target="0CS6tqCQIEhZepHbCGoQ-161" edge="1">
          <mxGeometry x="-0.3333" relative="1" as="geometry">
            <mxPoint x="135" y="180" as="targetPoint" />
            <mxPoint as="offset" />
            <mxPoint x="129.9999999999999" y="155" as="sourcePoint" />
          </mxGeometry>
        </mxCell>
        <mxCell id="0CS6tqCQIEhZepHbCGoQ-159" value="Verifikasi" style="rhombus;whiteSpace=wrap;html=1;" parent="0CS6tqCQIEhZepHbCGoQ-157" vertex="1">
          <mxGeometry x="90" y="80" width="80" height="80" as="geometry" />
        </mxCell>
        <mxCell id="0CS6tqCQIEhZepHbCGoQ-160" value="Validasi" style="rhombus;whiteSpace=wrap;html=1;" parent="0CS6tqCQIEhZepHbCGoQ-157" vertex="1">
          <mxGeometry x="20" y="290" width="80" height="80" as="geometry" />
        </mxCell>
        <mxCell id="0CS6tqCQIEhZepHbCGoQ-161" value="Tampil Testimoni" style="rounded=1;whiteSpace=wrap;html=1;arcSize=40;fontColor=#000000;fillColor=#FFFFFF;strokeColor=#000000;" parent="0CS6tqCQIEhZepHbCGoQ-157" vertex="1">
          <mxGeometry x="90" y="180" width="80" height="40" as="geometry" />
        </mxCell>
        <mxCell id="0CS6tqCQIEhZepHbCGoQ-163" value="Ya" style="edgeStyle=orthogonalEdgeStyle;rounded=0;orthogonalLoop=1;jettySize=auto;html=1;" parent="0CS6tqCQIEhZepHbCGoQ-157" edge="1">
          <mxGeometry x="-0.2" relative="1" as="geometry">
            <mxPoint x="60" y="368.9999999999998" as="sourcePoint" />
            <mxPoint x="60" y="396.5" as="targetPoint" />
            <mxPoint as="offset" />
          </mxGeometry>
        </mxCell>
        <mxCell id="0CS6tqCQIEhZepHbCGoQ-164" value="Tampil Sukses Alert" style="rounded=1;whiteSpace=wrap;html=1;arcSize=40;fontColor=#000000;fillColor=#FFFFFF;strokeColor=#000000;" parent="0CS6tqCQIEhZepHbCGoQ-157" vertex="1">
          <mxGeometry x="20" y="397.5" width="80" height="40" as="geometry" />
        </mxCell>
        <mxCell id="0CS6tqCQIEhZepHbCGoQ-165" style="edgeStyle=orthogonalEdgeStyle;rounded=0;orthogonalLoop=1;jettySize=auto;html=1;entryX=0;entryY=0.5;entryDx=0;entryDy=0;exitX=1;exitY=0.5;exitDx=0;exitDy=0;" parent="1" target="0CS6tqCQIEhZepHbCGoQ-159" edge="1">
          <mxGeometry relative="1" as="geometry">
            <mxPoint x="4400" y="240" as="sourcePoint" />
            <mxPoint x="4560" y="230" as="targetPoint" />
          </mxGeometry>
        </mxCell>
        <mxCell id="0CS6tqCQIEhZepHbCGoQ-166" style="edgeStyle=orthogonalEdgeStyle;rounded=0;orthogonalLoop=1;jettySize=auto;html=1;entryX=0.5;entryY=0;entryDx=0;entryDy=0;exitX=0;exitY=0.5;exitDx=0;exitDy=0;" parent="1" source="0CS6tqCQIEhZepHbCGoQ-161" edge="1">
          <mxGeometry relative="1" as="geometry">
            <mxPoint x="4575" y="320" as="sourcePoint" />
            <mxPoint x="4360" y="360" as="targetPoint" />
            <Array as="points">
              <mxPoint x="4360" y="320" />
            </Array>
          </mxGeometry>
        </mxCell>
        <mxCell id="0CS6tqCQIEhZepHbCGoQ-167" value="Reserve Management" style="text;html=1;align=center;verticalAlign=middle;resizable=0;points=[];autosize=1;strokeColor=none;fillColor=none;" parent="1" vertex="1">
          <mxGeometry x="4410" y="80" width="140" height="30" as="geometry" />
        </mxCell>
        <mxCell id="0CS6tqCQIEhZepHbCGoQ-169" value="" style="endArrow=classic;html=1;rounded=0;entryX=1;entryY=0.5;entryDx=0;entryDy=0;exitX=1;exitY=0.5;exitDx=0;exitDy=0;" parent="1" source="0CS6tqCQIEhZepHbCGoQ-159" target="0CS6tqCQIEhZepHbCGoQ-146" edge="1">
          <mxGeometry relative="1" as="geometry">
            <mxPoint x="4660" y="240" as="sourcePoint" />
            <mxPoint x="4790" y="322" as="targetPoint" />
            <Array as="points">
              <mxPoint x="4690" y="240" />
              <mxPoint x="4690" y="175" />
            </Array>
          </mxGeometry>
        </mxCell>
        <mxCell id="0CS6tqCQIEhZepHbCGoQ-170" value="Tidak" style="edgeLabel;resizable=0;html=1;align=center;verticalAlign=middle;" parent="0CS6tqCQIEhZepHbCGoQ-169" connectable="0" vertex="1">
          <mxGeometry relative="1" as="geometry">
            <mxPoint x="90" y="65" as="offset" />
          </mxGeometry>
        </mxCell>
        <mxCell id="0CS6tqCQIEhZepHbCGoQ-171" value="" style="edgeStyle=orthogonalEdgeStyle;rounded=0;orthogonalLoop=1;jettySize=auto;html=1;" parent="1" target="0CS6tqCQIEhZepHbCGoQ-160" edge="1">
          <mxGeometry relative="1" as="geometry">
            <mxPoint x="4400" y="450" as="sourcePoint" />
          </mxGeometry>
        </mxCell>
        <mxCell id="0CS6tqCQIEhZepHbCGoQ-173" style="edgeStyle=orthogonalEdgeStyle;rounded=0;orthogonalLoop=1;jettySize=auto;html=1;entryX=1;entryY=0.5;entryDx=0;entryDy=0;exitX=1;exitY=0.5;exitDx=0;exitDy=0;" parent="1" source="0CS6tqCQIEhZepHbCGoQ-160" target="0CS6tqCQIEhZepHbCGoQ-152" edge="1">
          <mxGeometry relative="1" as="geometry">
            <Array as="points">
              <mxPoint x="4610" y="450" />
              <mxPoint x="4610" y="380" />
            </Array>
          </mxGeometry>
        </mxCell>
        <mxCell id="0CS6tqCQIEhZepHbCGoQ-174" value="Tidak" style="edgeLabel;html=1;align=center;verticalAlign=middle;resizable=0;points=[];" parent="0CS6tqCQIEhZepHbCGoQ-173" vertex="1" connectable="0">
          <mxGeometry x="-0.867" relative="1" as="geometry">
            <mxPoint as="offset" />
          </mxGeometry>
        </mxCell>
        <mxCell id="0CS6tqCQIEhZepHbCGoQ-175" value="" style="edgeStyle=orthogonalEdgeStyle;rounded=0;orthogonalLoop=1;jettySize=auto;html=1;exitX=0;exitY=0.5;exitDx=0;exitDy=0;entryX=1;entryY=0.5;entryDx=0;entryDy=0;" parent="1" source="0CS6tqCQIEhZepHbCGoQ-164" target="0CS6tqCQIEhZepHbCGoQ-154" edge="1">
          <mxGeometry relative="1" as="geometry">
            <mxPoint x="4500" y="547.5" as="sourcePoint" />
            <mxPoint x="4400" y="547.5" as="targetPoint" />
          </mxGeometry>
        </mxCell>
        <mxCell id="0CS6tqCQIEhZepHbCGoQ-127" value="Ya" style="edgeStyle=orthogonalEdgeStyle;rounded=0;orthogonalLoop=1;jettySize=auto;html=1;entryX=0.5;entryY=0;entryDx=0;entryDy=0;exitX=0.5;exitY=1;exitDx=0;exitDy=0;" parent="1" source="0CS6tqCQIEhZepHbCGoQ-128" target="0CS6tqCQIEhZepHbCGoQ-119" edge="1">
          <mxGeometry x="-0.3333" relative="1" as="geometry">
            <mxPoint x="4010" y="300" as="targetPoint" />
            <mxPoint as="offset" />
            <mxPoint x="4010" y="275" as="sourcePoint" />
          </mxGeometry>
        </mxCell>
      </root>
    </mxGraphModel>
  </diagram>
  <diagram id="_Goi6C9rgRyOhNUFLUv3" name="contact">
    <mxGraphModel dx="1060" dy="561" grid="1" gridSize="10" guides="1" tooltips="1" connect="1" arrows="1" fold="1" page="1" pageScale="1" pageWidth="850" pageHeight="1100" math="0" shadow="0">
      <root>
        <mxCell id="0" />
        <mxCell id="1" parent="0" />
        <mxCell id="JccxRM8NJbajEzO7CRaT-1" value="Actor" style="swimlane;whiteSpace=wrap" vertex="1" parent="1">
          <mxGeometry x="40" y="120" width="240" height="1360" as="geometry" />
        </mxCell>
        <mxCell id="JccxRM8NJbajEzO7CRaT-2" value="" style="ellipse;shape=startState;fillColor=#000000;strokeColor=#000000;" vertex="1" parent="JccxRM8NJbajEzO7CRaT-1">
          <mxGeometry x="105" y="30" width="30" height="30" as="geometry" />
        </mxCell>
        <mxCell id="JccxRM8NJbajEzO7CRaT-3" value="" style="edgeStyle=elbowEdgeStyle;elbow=horizontal;verticalAlign=bottom;endArrow=open;endSize=8;strokeColor=#000000;endFill=1;rounded=0;entryX=0.5;entryY=0;entryDx=0;entryDy=0;entryPerimeter=0;" edge="1" parent="JccxRM8NJbajEzO7CRaT-1">
          <mxGeometry x="100" y="40" as="geometry">
            <mxPoint x="115" y="100" as="targetPoint" />
            <mxPoint x="114.71428571428578" y="100" as="sourcePoint" />
          </mxGeometry>
        </mxCell>
        <mxCell id="JccxRM8NJbajEzO7CRaT-4" value="" style="edgeStyle=elbowEdgeStyle;elbow=horizontal;verticalAlign=bottom;endArrow=classic;endSize=8;strokeColor=#000000;endFill=1;rounded=0;" edge="1" parent="JccxRM8NJbajEzO7CRaT-1" source="JccxRM8NJbajEzO7CRaT-2">
          <mxGeometry x="100" y="40" as="geometry">
            <mxPoint x="120" y="80" as="targetPoint" />
            <mxPoint x="155" y="190" as="sourcePoint" />
          </mxGeometry>
        </mxCell>
        <mxCell id="JccxRM8NJbajEzO7CRaT-5" value="Login" style="rounded=1;whiteSpace=wrap;html=1;fontSize=10;" vertex="1" parent="JccxRM8NJbajEzO7CRaT-1">
          <mxGeometry x="80" y="80" width="80" height="40" as="geometry" />
        </mxCell>
        <mxCell id="JccxRM8NJbajEzO7CRaT-6" style="edgeStyle=orthogonalEdgeStyle;rounded=0;orthogonalLoop=1;jettySize=auto;html=1;exitX=0.5;exitY=1;exitDx=0;exitDy=0;entryX=0.5;entryY=0;entryDx=0;entryDy=0;entryPerimeter=0;" edge="1" parent="JccxRM8NJbajEzO7CRaT-1" source="JccxRM8NJbajEzO7CRaT-7" target="JccxRM8NJbajEzO7CRaT-10">
          <mxGeometry relative="1" as="geometry" />
        </mxCell>
        <mxCell id="JccxRM8NJbajEzO7CRaT-7" value="Pilih Menu Contact" style="rounded=1;whiteSpace=wrap;html=1;fontSize=10;" vertex="1" parent="JccxRM8NJbajEzO7CRaT-1">
          <mxGeometry x="20" y="260" width="80" height="40" as="geometry" />
        </mxCell>
        <mxCell id="JccxRM8NJbajEzO7CRaT-8" style="edgeStyle=orthogonalEdgeStyle;rounded=0;orthogonalLoop=1;jettySize=auto;html=1;" edge="1" parent="JccxRM8NJbajEzO7CRaT-1" source="JccxRM8NJbajEzO7CRaT-10" target="JccxRM8NJbajEzO7CRaT-16">
          <mxGeometry relative="1" as="geometry" />
        </mxCell>
        <mxCell id="JccxRM8NJbajEzO7CRaT-9" value="N" style="edgeLabel;html=1;align=center;verticalAlign=middle;resizable=0;points=[];" vertex="1" connectable="0" parent="JccxRM8NJbajEzO7CRaT-8">
          <mxGeometry y="4" relative="1" as="geometry">
            <mxPoint x="-4" as="offset" />
          </mxGeometry>
        </mxCell>
        <mxCell id="JccxRM8NJbajEzO7CRaT-10" value="Tambah &lt;br&gt;Contact" style="strokeWidth=2;html=1;shape=mxgraph.flowchart.decision;whiteSpace=wrap;" vertex="1" parent="JccxRM8NJbajEzO7CRaT-1">
          <mxGeometry x="20" y="320" width="80" height="80" as="geometry" />
        </mxCell>
        <mxCell id="JccxRM8NJbajEzO7CRaT-11" value="" style="edgeStyle=orthogonalEdgeStyle;rounded=0;orthogonalLoop=1;jettySize=auto;html=1;" edge="1" parent="JccxRM8NJbajEzO7CRaT-1" source="JccxRM8NJbajEzO7CRaT-12" target="JccxRM8NJbajEzO7CRaT-13">
          <mxGeometry relative="1" as="geometry" />
        </mxCell>
        <mxCell id="JccxRM8NJbajEzO7CRaT-12" value="Input Data Contact" style="rounded=1;whiteSpace=wrap;html=1;fontSize=10;" vertex="1" parent="JccxRM8NJbajEzO7CRaT-1">
          <mxGeometry x="130" y="400" width="80" height="40" as="geometry" />
        </mxCell>
        <mxCell id="JccxRM8NJbajEzO7CRaT-13" value="Submit" style="rounded=1;whiteSpace=wrap;html=1;fontSize=10;" vertex="1" parent="JccxRM8NJbajEzO7CRaT-1">
          <mxGeometry x="130" y="460" width="80" height="40" as="geometry" />
        </mxCell>
        <mxCell id="JccxRM8NJbajEzO7CRaT-14" style="edgeStyle=orthogonalEdgeStyle;rounded=0;orthogonalLoop=1;jettySize=auto;html=1;entryX=0.5;entryY=0;entryDx=0;entryDy=0;entryPerimeter=0;" edge="1" parent="JccxRM8NJbajEzO7CRaT-1">
          <mxGeometry relative="1" as="geometry">
            <mxPoint x="60" y="740" as="sourcePoint" />
            <mxPoint x="60" y="1020" as="targetPoint" />
          </mxGeometry>
        </mxCell>
        <mxCell id="JccxRM8NJbajEzO7CRaT-15" value="N" style="edgeLabel;html=1;align=center;verticalAlign=middle;resizable=0;points=[];" vertex="1" connectable="0" parent="JccxRM8NJbajEzO7CRaT-14">
          <mxGeometry x="0.0588" y="2" relative="1" as="geometry">
            <mxPoint x="-2" as="offset" />
          </mxGeometry>
        </mxCell>
        <mxCell id="JccxRM8NJbajEzO7CRaT-16" value="Edit&lt;br&gt;Contact" style="strokeWidth=2;html=1;shape=mxgraph.flowchart.decision;whiteSpace=wrap;" vertex="1" parent="JccxRM8NJbajEzO7CRaT-1">
          <mxGeometry x="20" y="660" width="80" height="80" as="geometry" />
        </mxCell>
        <mxCell id="JccxRM8NJbajEzO7CRaT-17" value="" style="edgeStyle=orthogonalEdgeStyle;rounded=0;orthogonalLoop=1;jettySize=auto;html=1;" edge="1" parent="JccxRM8NJbajEzO7CRaT-1" source="JccxRM8NJbajEzO7CRaT-18" target="JccxRM8NJbajEzO7CRaT-19">
          <mxGeometry relative="1" as="geometry" />
        </mxCell>
        <mxCell id="JccxRM8NJbajEzO7CRaT-18" value="Edit Data Contact" style="rounded=1;whiteSpace=wrap;html=1;fontSize=10;" vertex="1" parent="JccxRM8NJbajEzO7CRaT-1">
          <mxGeometry x="121" y="740" width="80" height="40" as="geometry" />
        </mxCell>
        <mxCell id="JccxRM8NJbajEzO7CRaT-19" value="Submit" style="rounded=1;whiteSpace=wrap;html=1;fontSize=10;" vertex="1" parent="JccxRM8NJbajEzO7CRaT-1">
          <mxGeometry x="121" y="800" width="80" height="40" as="geometry" />
        </mxCell>
        <mxCell id="JccxRM8NJbajEzO7CRaT-20" value="" style="edgeStyle=orthogonalEdgeStyle;rounded=0;orthogonalLoop=1;jettySize=auto;html=1;exitX=1;exitY=0.5;exitDx=0;exitDy=0;exitPerimeter=0;" edge="1" parent="JccxRM8NJbajEzO7CRaT-1" source="JccxRM8NJbajEzO7CRaT-24" target="JccxRM8NJbajEzO7CRaT-26">
          <mxGeometry relative="1" as="geometry">
            <mxPoint x="100" y="1060" as="sourcePoint" />
          </mxGeometry>
        </mxCell>
        <mxCell id="JccxRM8NJbajEzO7CRaT-21" value="Y" style="edgeLabel;html=1;align=center;verticalAlign=middle;resizable=0;points=[];" vertex="1" connectable="0" parent="JccxRM8NJbajEzO7CRaT-20">
          <mxGeometry x="0.1086" y="1" relative="1" as="geometry">
            <mxPoint x="-5" as="offset" />
          </mxGeometry>
        </mxCell>
        <mxCell id="JccxRM8NJbajEzO7CRaT-22" style="edgeStyle=orthogonalEdgeStyle;rounded=0;orthogonalLoop=1;jettySize=auto;html=1;exitX=0.5;exitY=1;exitDx=0;exitDy=0;exitPerimeter=0;entryX=0;entryY=0.5;entryDx=0;entryDy=0;" edge="1" parent="JccxRM8NJbajEzO7CRaT-1" source="JccxRM8NJbajEzO7CRaT-24" target="JccxRM8NJbajEzO7CRaT-28">
          <mxGeometry relative="1" as="geometry" />
        </mxCell>
        <mxCell id="JccxRM8NJbajEzO7CRaT-23" value="N" style="edgeLabel;html=1;align=center;verticalAlign=middle;resizable=0;points=[];" vertex="1" connectable="0" parent="JccxRM8NJbajEzO7CRaT-22">
          <mxGeometry x="-0.0588" y="1" relative="1" as="geometry">
            <mxPoint x="-2" as="offset" />
          </mxGeometry>
        </mxCell>
        <mxCell id="JccxRM8NJbajEzO7CRaT-24" value="Delete Contact" style="strokeWidth=2;html=1;shape=mxgraph.flowchart.decision;whiteSpace=wrap;" vertex="1" parent="JccxRM8NJbajEzO7CRaT-1">
          <mxGeometry x="20" y="1000" width="80" height="80" as="geometry" />
        </mxCell>
        <mxCell id="JccxRM8NJbajEzO7CRaT-25" value="" style="edgeStyle=orthogonalEdgeStyle;rounded=0;orthogonalLoop=1;jettySize=auto;html=1;" edge="1" parent="JccxRM8NJbajEzO7CRaT-1" source="JccxRM8NJbajEzO7CRaT-26" target="JccxRM8NJbajEzO7CRaT-27">
          <mxGeometry relative="1" as="geometry" />
        </mxCell>
        <mxCell id="JccxRM8NJbajEzO7CRaT-26" value="Pilih Data Contact" style="rounded=1;whiteSpace=wrap;html=1;fontSize=10;" vertex="1" parent="JccxRM8NJbajEzO7CRaT-1">
          <mxGeometry x="130" y="1020" width="80" height="40" as="geometry" />
        </mxCell>
        <mxCell id="JccxRM8NJbajEzO7CRaT-27" value="Hapus Data Contact" style="rounded=1;whiteSpace=wrap;html=1;fontSize=10;" vertex="1" parent="JccxRM8NJbajEzO7CRaT-1">
          <mxGeometry x="130" y="1080" width="80" height="40" as="geometry" />
        </mxCell>
        <mxCell id="JccxRM8NJbajEzO7CRaT-28" value="" style="ellipse;shape=endState;fillColor=#000000;strokeColor=#000000;" vertex="1" parent="JccxRM8NJbajEzO7CRaT-1">
          <mxGeometry x="105" y="1300" width="30" height="30" as="geometry" />
        </mxCell>
        <mxCell id="JccxRM8NJbajEzO7CRaT-29" value="Sistem" style="swimlane;whiteSpace=wrap;startSize=23;" vertex="1" parent="1">
          <mxGeometry x="280" y="120" width="240" height="1360" as="geometry" />
        </mxCell>
        <mxCell id="JccxRM8NJbajEzO7CRaT-30" style="edgeStyle=orthogonalEdgeStyle;rounded=0;orthogonalLoop=1;jettySize=auto;html=1;exitX=0.5;exitY=1;exitDx=0;exitDy=0;" edge="1" parent="JccxRM8NJbajEzO7CRaT-29" source="JccxRM8NJbajEzO7CRaT-32" target="JccxRM8NJbajEzO7CRaT-35">
          <mxGeometry relative="1" as="geometry" />
        </mxCell>
        <mxCell id="JccxRM8NJbajEzO7CRaT-31" value="Y" style="edgeLabel;html=1;align=center;verticalAlign=middle;resizable=0;points=[];" vertex="1" connectable="0" parent="JccxRM8NJbajEzO7CRaT-30">
          <mxGeometry x="0.4902" y="1" relative="1" as="geometry">
            <mxPoint x="-1" y="-16" as="offset" />
          </mxGeometry>
        </mxCell>
        <mxCell id="JccxRM8NJbajEzO7CRaT-32" value="Valid?" style="rhombus;whiteSpace=wrap;html=1;" vertex="1" parent="JccxRM8NJbajEzO7CRaT-29">
          <mxGeometry x="80" y="140" width="80" height="80" as="geometry" />
        </mxCell>
        <mxCell id="JccxRM8NJbajEzO7CRaT-33" style="edgeStyle=orthogonalEdgeStyle;rounded=0;orthogonalLoop=1;jettySize=auto;html=1;exitX=0.5;exitY=1;exitDx=0;exitDy=0;entryX=0.5;entryY=0;entryDx=0;entryDy=0;" edge="1" parent="JccxRM8NJbajEzO7CRaT-29" source="JccxRM8NJbajEzO7CRaT-34" target="JccxRM8NJbajEzO7CRaT-32">
          <mxGeometry relative="1" as="geometry" />
        </mxCell>
        <mxCell id="JccxRM8NJbajEzO7CRaT-34" value="Verifikasi Data" style="rounded=1;whiteSpace=wrap;html=1;fontSize=10;" vertex="1" parent="JccxRM8NJbajEzO7CRaT-29">
          <mxGeometry x="80" y="80" width="80" height="40" as="geometry" />
        </mxCell>
        <mxCell id="JccxRM8NJbajEzO7CRaT-35" value="Tampil Dashboard" style="rounded=1;whiteSpace=wrap;html=1;fontSize=10;" vertex="1" parent="JccxRM8NJbajEzO7CRaT-29">
          <mxGeometry x="80" y="260" width="80" height="40" as="geometry" />
        </mxCell>
        <mxCell id="JccxRM8NJbajEzO7CRaT-36" style="edgeStyle=orthogonalEdgeStyle;rounded=0;orthogonalLoop=1;jettySize=auto;html=1;exitX=0.5;exitY=1;exitDx=0;exitDy=0;entryX=0.5;entryY=0;entryDx=0;entryDy=0;" edge="1" parent="JccxRM8NJbajEzO7CRaT-29" source="JccxRM8NJbajEzO7CRaT-38" target="JccxRM8NJbajEzO7CRaT-41">
          <mxGeometry relative="1" as="geometry" />
        </mxCell>
        <mxCell id="JccxRM8NJbajEzO7CRaT-37" value="Y" style="edgeLabel;html=1;align=center;verticalAlign=middle;resizable=0;points=[];fontSize=8;" vertex="1" connectable="0" parent="JccxRM8NJbajEzO7CRaT-36">
          <mxGeometry x="-0.451" y="1" relative="1" as="geometry">
            <mxPoint x="-1" as="offset" />
          </mxGeometry>
        </mxCell>
        <mxCell id="JccxRM8NJbajEzO7CRaT-38" value="Valid?" style="rhombus;whiteSpace=wrap;html=1;" vertex="1" parent="JccxRM8NJbajEzO7CRaT-29">
          <mxGeometry x="80" y="520" width="80" height="80" as="geometry" />
        </mxCell>
        <mxCell id="JccxRM8NJbajEzO7CRaT-39" style="edgeStyle=orthogonalEdgeStyle;rounded=0;orthogonalLoop=1;jettySize=auto;html=1;exitX=0.5;exitY=1;exitDx=0;exitDy=0;entryX=0.5;entryY=0;entryDx=0;entryDy=0;" edge="1" parent="JccxRM8NJbajEzO7CRaT-29" source="JccxRM8NJbajEzO7CRaT-40" target="JccxRM8NJbajEzO7CRaT-38">
          <mxGeometry relative="1" as="geometry" />
        </mxCell>
        <mxCell id="JccxRM8NJbajEzO7CRaT-40" value="Validasi Data" style="rounded=1;whiteSpace=wrap;html=1;fontSize=10;" vertex="1" parent="JccxRM8NJbajEzO7CRaT-29">
          <mxGeometry x="80" y="460" width="80" height="40" as="geometry" />
        </mxCell>
        <mxCell id="JccxRM8NJbajEzO7CRaT-41" value="Tampil Sukses Alert" style="rounded=1;whiteSpace=wrap;html=1;fontSize=10;" vertex="1" parent="JccxRM8NJbajEzO7CRaT-29">
          <mxGeometry x="80" y="620" width="80" height="40" as="geometry" />
        </mxCell>
        <mxCell id="JccxRM8NJbajEzO7CRaT-42" style="edgeStyle=orthogonalEdgeStyle;rounded=0;orthogonalLoop=1;jettySize=auto;html=1;exitX=0.5;exitY=1;exitDx=0;exitDy=0;entryX=0.5;entryY=0;entryDx=0;entryDy=0;" edge="1" parent="JccxRM8NJbajEzO7CRaT-29" source="JccxRM8NJbajEzO7CRaT-44" target="JccxRM8NJbajEzO7CRaT-47">
          <mxGeometry relative="1" as="geometry" />
        </mxCell>
        <mxCell id="JccxRM8NJbajEzO7CRaT-43" value="Y" style="edgeLabel;html=1;align=center;verticalAlign=middle;resizable=0;points=[];fontSize=8;" vertex="1" connectable="0" parent="JccxRM8NJbajEzO7CRaT-42">
          <mxGeometry x="-0.451" y="1" relative="1" as="geometry">
            <mxPoint x="-1" as="offset" />
          </mxGeometry>
        </mxCell>
        <mxCell id="JccxRM8NJbajEzO7CRaT-44" value="Valid?" style="rhombus;whiteSpace=wrap;html=1;" vertex="1" parent="JccxRM8NJbajEzO7CRaT-29">
          <mxGeometry x="80" y="860" width="80" height="80" as="geometry" />
        </mxCell>
        <mxCell id="JccxRM8NJbajEzO7CRaT-45" style="edgeStyle=orthogonalEdgeStyle;rounded=0;orthogonalLoop=1;jettySize=auto;html=1;exitX=0.5;exitY=1;exitDx=0;exitDy=0;entryX=0.5;entryY=0;entryDx=0;entryDy=0;" edge="1" parent="JccxRM8NJbajEzO7CRaT-29" source="JccxRM8NJbajEzO7CRaT-46" target="JccxRM8NJbajEzO7CRaT-44">
          <mxGeometry relative="1" as="geometry" />
        </mxCell>
        <mxCell id="JccxRM8NJbajEzO7CRaT-46" value="Validasi Data" style="rounded=1;whiteSpace=wrap;html=1;fontSize=10;" vertex="1" parent="JccxRM8NJbajEzO7CRaT-29">
          <mxGeometry x="80" y="800" width="80" height="40" as="geometry" />
        </mxCell>
        <mxCell id="JccxRM8NJbajEzO7CRaT-47" value="Tampil Sukses Alert" style="rounded=1;whiteSpace=wrap;html=1;fontSize=10;" vertex="1" parent="JccxRM8NJbajEzO7CRaT-29">
          <mxGeometry x="80" y="960" width="80" height="40" as="geometry" />
        </mxCell>
        <mxCell id="JccxRM8NJbajEzO7CRaT-48" value="Valid?" style="rhombus;whiteSpace=wrap;html=1;" vertex="1" parent="JccxRM8NJbajEzO7CRaT-29">
          <mxGeometry x="80" y="1140" width="80" height="80" as="geometry" />
        </mxCell>
        <mxCell id="JccxRM8NJbajEzO7CRaT-49" style="edgeStyle=orthogonalEdgeStyle;rounded=0;orthogonalLoop=1;jettySize=auto;html=1;exitX=0.5;exitY=1;exitDx=0;exitDy=0;entryX=0.5;entryY=0;entryDx=0;entryDy=0;" edge="1" parent="JccxRM8NJbajEzO7CRaT-29" source="JccxRM8NJbajEzO7CRaT-50" target="JccxRM8NJbajEzO7CRaT-48">
          <mxGeometry relative="1" as="geometry" />
        </mxCell>
        <mxCell id="JccxRM8NJbajEzO7CRaT-50" value="Validasi Data" style="rounded=1;whiteSpace=wrap;html=1;fontSize=10;" vertex="1" parent="JccxRM8NJbajEzO7CRaT-29">
          <mxGeometry x="80" y="1080" width="80" height="40" as="geometry" />
        </mxCell>
        <mxCell id="JccxRM8NJbajEzO7CRaT-51" value="Tampil Form Input Data" style="rounded=1;whiteSpace=wrap;html=1;fontSize=10;" vertex="1" parent="JccxRM8NJbajEzO7CRaT-29">
          <mxGeometry x="80" y="340" width="80" height="40" as="geometry" />
        </mxCell>
        <mxCell id="JccxRM8NJbajEzO7CRaT-52" value="Tampil Form Edit Data" style="rounded=1;whiteSpace=wrap;html=1;fontSize=10;" vertex="1" parent="JccxRM8NJbajEzO7CRaT-29">
          <mxGeometry x="80" y="680" width="80" height="40" as="geometry" />
        </mxCell>
        <mxCell id="JccxRM8NJbajEzO7CRaT-53" value="Tampil Sukses Alert" style="rounded=1;whiteSpace=wrap;html=1;fontSize=10;" vertex="1" parent="JccxRM8NJbajEzO7CRaT-29">
          <mxGeometry x="80" y="1240" width="80" height="40" as="geometry" />
        </mxCell>
        <mxCell id="JccxRM8NJbajEzO7CRaT-54" style="edgeStyle=orthogonalEdgeStyle;rounded=0;orthogonalLoop=1;jettySize=auto;html=1;exitX=0.5;exitY=1;exitDx=0;exitDy=0;entryX=0.5;entryY=0;entryDx=0;entryDy=0;" edge="1" parent="JccxRM8NJbajEzO7CRaT-29" source="JccxRM8NJbajEzO7CRaT-48" target="JccxRM8NJbajEzO7CRaT-53">
          <mxGeometry relative="1" as="geometry" />
        </mxCell>
        <mxCell id="JccxRM8NJbajEzO7CRaT-55" value="Y" style="edgeLabel;html=1;align=center;verticalAlign=middle;resizable=0;points=[];fontSize=8;" vertex="1" connectable="0" parent="JccxRM8NJbajEzO7CRaT-54">
          <mxGeometry x="-0.451" y="1" relative="1" as="geometry">
            <mxPoint x="-1" as="offset" />
          </mxGeometry>
        </mxCell>
        <mxCell id="JccxRM8NJbajEzO7CRaT-56" style="edgeStyle=orthogonalEdgeStyle;rounded=0;orthogonalLoop=1;jettySize=auto;html=1;entryX=1;entryY=0.5;entryDx=0;entryDy=0;" edge="1" parent="1" source="JccxRM8NJbajEzO7CRaT-32" target="JccxRM8NJbajEzO7CRaT-2">
          <mxGeometry relative="1" as="geometry">
            <Array as="points">
              <mxPoint x="480" y="300" />
              <mxPoint x="480" y="165" />
            </Array>
          </mxGeometry>
        </mxCell>
        <mxCell id="JccxRM8NJbajEzO7CRaT-57" value="N" style="edgeLabel;html=1;align=center;verticalAlign=middle;resizable=0;points=[];" vertex="1" connectable="0" parent="JccxRM8NJbajEzO7CRaT-56">
          <mxGeometry x="-0.7449" y="-1" relative="1" as="geometry">
            <mxPoint x="-2" as="offset" />
          </mxGeometry>
        </mxCell>
        <mxCell id="JccxRM8NJbajEzO7CRaT-58" style="edgeStyle=orthogonalEdgeStyle;rounded=0;orthogonalLoop=1;jettySize=auto;html=1;entryX=1;entryY=0.5;entryDx=0;entryDy=0;" edge="1" parent="1" source="JccxRM8NJbajEzO7CRaT-35" target="JccxRM8NJbajEzO7CRaT-7">
          <mxGeometry relative="1" as="geometry" />
        </mxCell>
        <mxCell id="JccxRM8NJbajEzO7CRaT-59" style="edgeStyle=orthogonalEdgeStyle;rounded=0;orthogonalLoop=1;jettySize=auto;html=1;entryX=0;entryY=0.5;entryDx=0;entryDy=0;" edge="1" parent="1" source="JccxRM8NJbajEzO7CRaT-13" target="JccxRM8NJbajEzO7CRaT-40">
          <mxGeometry relative="1" as="geometry" />
        </mxCell>
        <mxCell id="JccxRM8NJbajEzO7CRaT-60" style="edgeStyle=orthogonalEdgeStyle;rounded=0;orthogonalLoop=1;jettySize=auto;html=1;entryX=1;entryY=0.5;entryDx=0;entryDy=0;exitX=1;exitY=0.5;exitDx=0;exitDy=0;" edge="1" parent="1" source="JccxRM8NJbajEzO7CRaT-38" target="JccxRM8NJbajEzO7CRaT-12">
          <mxGeometry relative="1" as="geometry">
            <Array as="points">
              <mxPoint x="480" y="680" />
              <mxPoint x="480" y="540" />
            </Array>
          </mxGeometry>
        </mxCell>
        <mxCell id="JccxRM8NJbajEzO7CRaT-61" value="N" style="edgeLabel;html=1;align=center;verticalAlign=middle;resizable=0;points=[];" vertex="1" connectable="0" parent="JccxRM8NJbajEzO7CRaT-60">
          <mxGeometry x="-0.6245" relative="1" as="geometry">
            <mxPoint x="-1" as="offset" />
          </mxGeometry>
        </mxCell>
        <mxCell id="JccxRM8NJbajEzO7CRaT-62" style="edgeStyle=orthogonalEdgeStyle;rounded=0;orthogonalLoop=1;jettySize=auto;html=1;entryX=0;entryY=0.5;entryDx=0;entryDy=0;" edge="1" parent="1" source="JccxRM8NJbajEzO7CRaT-19" target="JccxRM8NJbajEzO7CRaT-46">
          <mxGeometry relative="1" as="geometry" />
        </mxCell>
        <mxCell id="JccxRM8NJbajEzO7CRaT-63" style="edgeStyle=orthogonalEdgeStyle;rounded=0;orthogonalLoop=1;jettySize=auto;html=1;entryX=1;entryY=0.5;entryDx=0;entryDy=0;" edge="1" parent="1" source="JccxRM8NJbajEzO7CRaT-44" target="JccxRM8NJbajEzO7CRaT-18">
          <mxGeometry relative="1" as="geometry">
            <Array as="points">
              <mxPoint x="481" y="1020" />
              <mxPoint x="481" y="880" />
            </Array>
          </mxGeometry>
        </mxCell>
        <mxCell id="JccxRM8NJbajEzO7CRaT-64" value="N" style="edgeLabel;html=1;align=center;verticalAlign=middle;resizable=0;points=[];" vertex="1" connectable="0" parent="JccxRM8NJbajEzO7CRaT-63">
          <mxGeometry x="-0.6245" relative="1" as="geometry">
            <mxPoint x="-1" as="offset" />
          </mxGeometry>
        </mxCell>
        <mxCell id="JccxRM8NJbajEzO7CRaT-65" style="edgeStyle=orthogonalEdgeStyle;rounded=0;orthogonalLoop=1;jettySize=auto;html=1;entryX=0;entryY=0.5;entryDx=0;entryDy=0;" edge="1" parent="1" source="JccxRM8NJbajEzO7CRaT-27" target="JccxRM8NJbajEzO7CRaT-50">
          <mxGeometry relative="1" as="geometry" />
        </mxCell>
        <mxCell id="JccxRM8NJbajEzO7CRaT-66" style="edgeStyle=orthogonalEdgeStyle;rounded=0;orthogonalLoop=1;jettySize=auto;html=1;entryX=1;entryY=0.5;entryDx=0;entryDy=0;" edge="1" parent="1" source="JccxRM8NJbajEzO7CRaT-48" target="JccxRM8NJbajEzO7CRaT-26">
          <mxGeometry relative="1" as="geometry">
            <Array as="points">
              <mxPoint x="480" y="1300" />
              <mxPoint x="480" y="1160" />
            </Array>
          </mxGeometry>
        </mxCell>
        <mxCell id="JccxRM8NJbajEzO7CRaT-67" value="N" style="edgeLabel;html=1;align=center;verticalAlign=middle;resizable=0;points=[];" vertex="1" connectable="0" parent="JccxRM8NJbajEzO7CRaT-66">
          <mxGeometry x="-0.6245" relative="1" as="geometry">
            <mxPoint x="-1" as="offset" />
          </mxGeometry>
        </mxCell>
        <mxCell id="JccxRM8NJbajEzO7CRaT-68" value="" style="edgeStyle=orthogonalEdgeStyle;rounded=0;orthogonalLoop=1;jettySize=auto;html=1;entryX=0;entryY=0.5;entryDx=0;entryDy=0;" edge="1" parent="1" source="JccxRM8NJbajEzO7CRaT-10" target="JccxRM8NJbajEzO7CRaT-51">
          <mxGeometry relative="1" as="geometry" />
        </mxCell>
        <mxCell id="JccxRM8NJbajEzO7CRaT-69" value="Y" style="edgeLabel;html=1;align=center;verticalAlign=middle;resizable=0;points=[];" vertex="1" connectable="0" parent="JccxRM8NJbajEzO7CRaT-68">
          <mxGeometry x="0.32" y="1" relative="1" as="geometry">
            <mxPoint x="-47" y="1" as="offset" />
          </mxGeometry>
        </mxCell>
        <mxCell id="JccxRM8NJbajEzO7CRaT-70" style="edgeStyle=orthogonalEdgeStyle;rounded=0;orthogonalLoop=1;jettySize=auto;html=1;exitX=0.5;exitY=1;exitDx=0;exitDy=0;entryX=0.5;entryY=0;entryDx=0;entryDy=0;" edge="1" parent="1" source="JccxRM8NJbajEzO7CRaT-51" target="JccxRM8NJbajEzO7CRaT-12">
          <mxGeometry relative="1" as="geometry">
            <Array as="points">
              <mxPoint x="400" y="510" />
              <mxPoint x="210" y="510" />
            </Array>
          </mxGeometry>
        </mxCell>
        <mxCell id="JccxRM8NJbajEzO7CRaT-71" value="" style="edgeStyle=orthogonalEdgeStyle;rounded=0;orthogonalLoop=1;jettySize=auto;html=1;entryX=0;entryY=0.5;entryDx=0;entryDy=0;" edge="1" parent="1" target="JccxRM8NJbajEzO7CRaT-52">
          <mxGeometry relative="1" as="geometry">
            <mxPoint x="140" y="820" as="sourcePoint" />
          </mxGeometry>
        </mxCell>
        <mxCell id="JccxRM8NJbajEzO7CRaT-72" value="Y" style="edgeLabel;html=1;align=center;verticalAlign=middle;resizable=0;points=[];" vertex="1" connectable="0" parent="JccxRM8NJbajEzO7CRaT-71">
          <mxGeometry x="0.32" y="1" relative="1" as="geometry">
            <mxPoint x="-46" y="1" as="offset" />
          </mxGeometry>
        </mxCell>
        <mxCell id="JccxRM8NJbajEzO7CRaT-73" style="edgeStyle=orthogonalEdgeStyle;rounded=0;orthogonalLoop=1;jettySize=auto;html=1;entryX=0.5;entryY=0;entryDx=0;entryDy=0;exitX=0.5;exitY=1;exitDx=0;exitDy=0;" edge="1" parent="1" source="JccxRM8NJbajEzO7CRaT-52" target="JccxRM8NJbajEzO7CRaT-18">
          <mxGeometry relative="1" as="geometry">
            <Array as="points">
              <mxPoint x="400" y="850" />
              <mxPoint x="201" y="850" />
            </Array>
          </mxGeometry>
        </mxCell>
        <mxCell id="JccxRM8NJbajEzO7CRaT-74" style="edgeStyle=orthogonalEdgeStyle;rounded=0;orthogonalLoop=1;jettySize=auto;html=1;entryX=1;entryY=0.5;entryDx=0;entryDy=0;" edge="1" parent="1" source="JccxRM8NJbajEzO7CRaT-47" target="JccxRM8NJbajEzO7CRaT-28">
          <mxGeometry relative="1" as="geometry">
            <Array as="points">
              <mxPoint x="500" y="1100" />
              <mxPoint x="500" y="1435" />
            </Array>
          </mxGeometry>
        </mxCell>
        <mxCell id="JccxRM8NJbajEzO7CRaT-75" value="" style="edgeStyle=orthogonalEdgeStyle;rounded=0;orthogonalLoop=1;jettySize=auto;html=1;" edge="1" parent="1" source="JccxRM8NJbajEzO7CRaT-53" target="JccxRM8NJbajEzO7CRaT-28">
          <mxGeometry relative="1" as="geometry">
            <mxPoint x="160" y="1500" as="targetPoint" />
            <mxPoint x="360" y="1420" as="sourcePoint" />
          </mxGeometry>
        </mxCell>
        <mxCell id="JccxRM8NJbajEzO7CRaT-76" style="edgeStyle=orthogonalEdgeStyle;rounded=0;orthogonalLoop=1;jettySize=auto;html=1;entryX=0.5;entryY=1;entryDx=0;entryDy=0;" edge="1" parent="1" source="JccxRM8NJbajEzO7CRaT-41" target="JccxRM8NJbajEzO7CRaT-28">
          <mxGeometry relative="1" as="geometry">
            <Array as="points">
              <mxPoint x="510" y="760" />
              <mxPoint x="510" y="1470" />
              <mxPoint x="160" y="1470" />
            </Array>
          </mxGeometry>
        </mxCell>
        <mxCell id="JccxRM8NJbajEzO7CRaT-77" style="edgeStyle=orthogonalEdgeStyle;rounded=0;orthogonalLoop=1;jettySize=auto;html=1;entryX=0;entryY=0.5;entryDx=0;entryDy=0;" edge="1" parent="1" source="JccxRM8NJbajEzO7CRaT-5" target="JccxRM8NJbajEzO7CRaT-34">
          <mxGeometry relative="1" as="geometry" />
        </mxCell>
      </root>
    </mxGraphModel>
  </diagram>
  <diagram id="PB4J0b7oaXF4LCcT_s64" name="appointment">
    <mxGraphModel dx="1060" dy="561" grid="1" gridSize="10" guides="1" tooltips="1" connect="1" arrows="1" fold="1" page="1" pageScale="1" pageWidth="850" pageHeight="1100" math="0" shadow="0">
      <root>
        <mxCell id="0" />
        <mxCell id="1" parent="0" />
        <mxCell id="JmIvOsPWEGZjjYIrv6aK-1" value="Actor" style="swimlane;whiteSpace=wrap" vertex="1" parent="1">
          <mxGeometry x="40" y="120" width="240" height="1360" as="geometry" />
        </mxCell>
        <mxCell id="JmIvOsPWEGZjjYIrv6aK-2" value="" style="ellipse;shape=startState;fillColor=#000000;strokeColor=#000000;" vertex="1" parent="JmIvOsPWEGZjjYIrv6aK-1">
          <mxGeometry x="105" y="30" width="30" height="30" as="geometry" />
        </mxCell>
        <mxCell id="JmIvOsPWEGZjjYIrv6aK-3" value="" style="edgeStyle=elbowEdgeStyle;elbow=horizontal;verticalAlign=bottom;endArrow=open;endSize=8;strokeColor=#000000;endFill=1;rounded=0;entryX=0.5;entryY=0;entryDx=0;entryDy=0;entryPerimeter=0;" edge="1" parent="JmIvOsPWEGZjjYIrv6aK-1">
          <mxGeometry x="100" y="40" as="geometry">
            <mxPoint x="115" y="100" as="targetPoint" />
            <mxPoint x="114.71428571428578" y="100" as="sourcePoint" />
          </mxGeometry>
        </mxCell>
        <mxCell id="JmIvOsPWEGZjjYIrv6aK-4" value="" style="edgeStyle=elbowEdgeStyle;elbow=horizontal;verticalAlign=bottom;endArrow=classic;endSize=8;strokeColor=#000000;endFill=1;rounded=0;" edge="1" parent="JmIvOsPWEGZjjYIrv6aK-1" source="JmIvOsPWEGZjjYIrv6aK-2">
          <mxGeometry x="100" y="40" as="geometry">
            <mxPoint x="120" y="80" as="targetPoint" />
            <mxPoint x="155" y="190" as="sourcePoint" />
          </mxGeometry>
        </mxCell>
        <mxCell id="JmIvOsPWEGZjjYIrv6aK-5" value="Login" style="rounded=1;whiteSpace=wrap;html=1;fontSize=10;" vertex="1" parent="JmIvOsPWEGZjjYIrv6aK-1">
          <mxGeometry x="80" y="80" width="80" height="40" as="geometry" />
        </mxCell>
        <mxCell id="JmIvOsPWEGZjjYIrv6aK-6" style="edgeStyle=orthogonalEdgeStyle;rounded=0;orthogonalLoop=1;jettySize=auto;html=1;exitX=0.5;exitY=1;exitDx=0;exitDy=0;entryX=0.5;entryY=0;entryDx=0;entryDy=0;entryPerimeter=0;" edge="1" parent="JmIvOsPWEGZjjYIrv6aK-1" source="JmIvOsPWEGZjjYIrv6aK-7" target="JmIvOsPWEGZjjYIrv6aK-10">
          <mxGeometry relative="1" as="geometry" />
        </mxCell>
        <mxCell id="JmIvOsPWEGZjjYIrv6aK-7" value="Pilih Menu Appointment" style="rounded=1;whiteSpace=wrap;html=1;fontSize=10;" vertex="1" parent="JmIvOsPWEGZjjYIrv6aK-1">
          <mxGeometry x="20" y="260" width="80" height="40" as="geometry" />
        </mxCell>
        <mxCell id="JmIvOsPWEGZjjYIrv6aK-8" style="edgeStyle=orthogonalEdgeStyle;rounded=0;orthogonalLoop=1;jettySize=auto;html=1;" edge="1" parent="JmIvOsPWEGZjjYIrv6aK-1" source="JmIvOsPWEGZjjYIrv6aK-10" target="JmIvOsPWEGZjjYIrv6aK-16">
          <mxGeometry relative="1" as="geometry" />
        </mxCell>
        <mxCell id="JmIvOsPWEGZjjYIrv6aK-9" value="N" style="edgeLabel;html=1;align=center;verticalAlign=middle;resizable=0;points=[];" vertex="1" connectable="0" parent="JmIvOsPWEGZjjYIrv6aK-8">
          <mxGeometry y="4" relative="1" as="geometry">
            <mxPoint x="-4" as="offset" />
          </mxGeometry>
        </mxCell>
        <mxCell id="JmIvOsPWEGZjjYIrv6aK-10" value="Tambah &lt;br style=&quot;font-size: 10px;&quot;&gt;Appointment" style="strokeWidth=2;html=1;shape=mxgraph.flowchart.decision;whiteSpace=wrap;fontSize=10;" vertex="1" parent="JmIvOsPWEGZjjYIrv6aK-1">
          <mxGeometry x="20" y="320" width="80" height="80" as="geometry" />
        </mxCell>
        <mxCell id="JmIvOsPWEGZjjYIrv6aK-11" value="" style="edgeStyle=orthogonalEdgeStyle;rounded=0;orthogonalLoop=1;jettySize=auto;html=1;" edge="1" parent="JmIvOsPWEGZjjYIrv6aK-1" source="JmIvOsPWEGZjjYIrv6aK-12" target="JmIvOsPWEGZjjYIrv6aK-13">
          <mxGeometry relative="1" as="geometry" />
        </mxCell>
        <mxCell id="JmIvOsPWEGZjjYIrv6aK-12" value="Input Data Appointment" style="rounded=1;whiteSpace=wrap;html=1;fontSize=10;" vertex="1" parent="JmIvOsPWEGZjjYIrv6aK-1">
          <mxGeometry x="130" y="400" width="80" height="40" as="geometry" />
        </mxCell>
        <mxCell id="JmIvOsPWEGZjjYIrv6aK-13" value="Submit" style="rounded=1;whiteSpace=wrap;html=1;fontSize=10;" vertex="1" parent="JmIvOsPWEGZjjYIrv6aK-1">
          <mxGeometry x="130" y="460" width="80" height="40" as="geometry" />
        </mxCell>
        <mxCell id="JmIvOsPWEGZjjYIrv6aK-14" style="edgeStyle=orthogonalEdgeStyle;rounded=0;orthogonalLoop=1;jettySize=auto;html=1;entryX=0.5;entryY=0;entryDx=0;entryDy=0;entryPerimeter=0;" edge="1" parent="JmIvOsPWEGZjjYIrv6aK-1">
          <mxGeometry relative="1" as="geometry">
            <mxPoint x="60" y="740" as="sourcePoint" />
            <mxPoint x="60" y="1020" as="targetPoint" />
          </mxGeometry>
        </mxCell>
        <mxCell id="JmIvOsPWEGZjjYIrv6aK-15" value="N" style="edgeLabel;html=1;align=center;verticalAlign=middle;resizable=0;points=[];" vertex="1" connectable="0" parent="JmIvOsPWEGZjjYIrv6aK-14">
          <mxGeometry x="0.0588" y="2" relative="1" as="geometry">
            <mxPoint x="-2" as="offset" />
          </mxGeometry>
        </mxCell>
        <mxCell id="JmIvOsPWEGZjjYIrv6aK-16" value="&lt;font style=&quot;font-size: 10px;&quot;&gt;Edit&lt;br&gt;Appointment&lt;/font&gt;" style="strokeWidth=2;html=1;shape=mxgraph.flowchart.decision;whiteSpace=wrap;" vertex="1" parent="JmIvOsPWEGZjjYIrv6aK-1">
          <mxGeometry x="20" y="660" width="80" height="80" as="geometry" />
        </mxCell>
        <mxCell id="JmIvOsPWEGZjjYIrv6aK-17" value="" style="edgeStyle=orthogonalEdgeStyle;rounded=0;orthogonalLoop=1;jettySize=auto;html=1;" edge="1" parent="JmIvOsPWEGZjjYIrv6aK-1" source="JmIvOsPWEGZjjYIrv6aK-18" target="JmIvOsPWEGZjjYIrv6aK-19">
          <mxGeometry relative="1" as="geometry" />
        </mxCell>
        <mxCell id="JmIvOsPWEGZjjYIrv6aK-18" value="Edit Data Appointment" style="rounded=1;whiteSpace=wrap;html=1;fontSize=10;" vertex="1" parent="JmIvOsPWEGZjjYIrv6aK-1">
          <mxGeometry x="121" y="740" width="80" height="40" as="geometry" />
        </mxCell>
        <mxCell id="JmIvOsPWEGZjjYIrv6aK-19" value="Submit" style="rounded=1;whiteSpace=wrap;html=1;fontSize=10;" vertex="1" parent="JmIvOsPWEGZjjYIrv6aK-1">
          <mxGeometry x="121" y="800" width="80" height="40" as="geometry" />
        </mxCell>
        <mxCell id="JmIvOsPWEGZjjYIrv6aK-20" value="" style="edgeStyle=orthogonalEdgeStyle;rounded=0;orthogonalLoop=1;jettySize=auto;html=1;exitX=1;exitY=0.5;exitDx=0;exitDy=0;exitPerimeter=0;" edge="1" parent="JmIvOsPWEGZjjYIrv6aK-1" source="JmIvOsPWEGZjjYIrv6aK-24" target="JmIvOsPWEGZjjYIrv6aK-26">
          <mxGeometry relative="1" as="geometry">
            <mxPoint x="100" y="1060" as="sourcePoint" />
          </mxGeometry>
        </mxCell>
        <mxCell id="JmIvOsPWEGZjjYIrv6aK-21" value="Y" style="edgeLabel;html=1;align=center;verticalAlign=middle;resizable=0;points=[];" vertex="1" connectable="0" parent="JmIvOsPWEGZjjYIrv6aK-20">
          <mxGeometry x="0.1086" y="1" relative="1" as="geometry">
            <mxPoint x="-5" as="offset" />
          </mxGeometry>
        </mxCell>
        <mxCell id="JmIvOsPWEGZjjYIrv6aK-22" style="edgeStyle=orthogonalEdgeStyle;rounded=0;orthogonalLoop=1;jettySize=auto;html=1;exitX=0.5;exitY=1;exitDx=0;exitDy=0;exitPerimeter=0;entryX=0;entryY=0.5;entryDx=0;entryDy=0;" edge="1" parent="JmIvOsPWEGZjjYIrv6aK-1" source="JmIvOsPWEGZjjYIrv6aK-24" target="JmIvOsPWEGZjjYIrv6aK-28">
          <mxGeometry relative="1" as="geometry" />
        </mxCell>
        <mxCell id="JmIvOsPWEGZjjYIrv6aK-23" value="N" style="edgeLabel;html=1;align=center;verticalAlign=middle;resizable=0;points=[];" vertex="1" connectable="0" parent="JmIvOsPWEGZjjYIrv6aK-22">
          <mxGeometry x="-0.0588" y="1" relative="1" as="geometry">
            <mxPoint x="-2" as="offset" />
          </mxGeometry>
        </mxCell>
        <mxCell id="JmIvOsPWEGZjjYIrv6aK-24" value="&lt;font style=&quot;font-size: 10px;&quot;&gt;Delete Appointment&lt;/font&gt;" style="strokeWidth=2;html=1;shape=mxgraph.flowchart.decision;whiteSpace=wrap;" vertex="1" parent="JmIvOsPWEGZjjYIrv6aK-1">
          <mxGeometry x="20" y="1000" width="80" height="80" as="geometry" />
        </mxCell>
        <mxCell id="JmIvOsPWEGZjjYIrv6aK-25" value="" style="edgeStyle=orthogonalEdgeStyle;rounded=0;orthogonalLoop=1;jettySize=auto;html=1;" edge="1" parent="JmIvOsPWEGZjjYIrv6aK-1" source="JmIvOsPWEGZjjYIrv6aK-26" target="JmIvOsPWEGZjjYIrv6aK-27">
          <mxGeometry relative="1" as="geometry" />
        </mxCell>
        <mxCell id="JmIvOsPWEGZjjYIrv6aK-26" value="Pilih Data Appointment" style="rounded=1;whiteSpace=wrap;html=1;fontSize=10;" vertex="1" parent="JmIvOsPWEGZjjYIrv6aK-1">
          <mxGeometry x="130" y="1020" width="80" height="40" as="geometry" />
        </mxCell>
        <mxCell id="JmIvOsPWEGZjjYIrv6aK-27" value="Hapus Data Appointment" style="rounded=1;whiteSpace=wrap;html=1;fontSize=10;" vertex="1" parent="JmIvOsPWEGZjjYIrv6aK-1">
          <mxGeometry x="130" y="1080" width="80" height="40" as="geometry" />
        </mxCell>
        <mxCell id="JmIvOsPWEGZjjYIrv6aK-28" value="" style="ellipse;shape=endState;fillColor=#000000;strokeColor=#000000;" vertex="1" parent="JmIvOsPWEGZjjYIrv6aK-1">
          <mxGeometry x="105" y="1300" width="30" height="30" as="geometry" />
        </mxCell>
        <mxCell id="JmIvOsPWEGZjjYIrv6aK-29" value="Sistem" style="swimlane;whiteSpace=wrap;startSize=23;" vertex="1" parent="1">
          <mxGeometry x="280" y="120" width="240" height="1360" as="geometry" />
        </mxCell>
        <mxCell id="JmIvOsPWEGZjjYIrv6aK-30" style="edgeStyle=orthogonalEdgeStyle;rounded=0;orthogonalLoop=1;jettySize=auto;html=1;exitX=0.5;exitY=1;exitDx=0;exitDy=0;" edge="1" parent="JmIvOsPWEGZjjYIrv6aK-29" source="JmIvOsPWEGZjjYIrv6aK-32" target="JmIvOsPWEGZjjYIrv6aK-35">
          <mxGeometry relative="1" as="geometry" />
        </mxCell>
        <mxCell id="JmIvOsPWEGZjjYIrv6aK-31" value="Y" style="edgeLabel;html=1;align=center;verticalAlign=middle;resizable=0;points=[];" vertex="1" connectable="0" parent="JmIvOsPWEGZjjYIrv6aK-30">
          <mxGeometry x="0.4902" y="1" relative="1" as="geometry">
            <mxPoint x="-1" y="-16" as="offset" />
          </mxGeometry>
        </mxCell>
        <mxCell id="JmIvOsPWEGZjjYIrv6aK-32" value="Valid?" style="rhombus;whiteSpace=wrap;html=1;" vertex="1" parent="JmIvOsPWEGZjjYIrv6aK-29">
          <mxGeometry x="80" y="140" width="80" height="80" as="geometry" />
        </mxCell>
        <mxCell id="JmIvOsPWEGZjjYIrv6aK-33" style="edgeStyle=orthogonalEdgeStyle;rounded=0;orthogonalLoop=1;jettySize=auto;html=1;exitX=0.5;exitY=1;exitDx=0;exitDy=0;entryX=0.5;entryY=0;entryDx=0;entryDy=0;" edge="1" parent="JmIvOsPWEGZjjYIrv6aK-29" source="JmIvOsPWEGZjjYIrv6aK-34" target="JmIvOsPWEGZjjYIrv6aK-32">
          <mxGeometry relative="1" as="geometry" />
        </mxCell>
        <mxCell id="JmIvOsPWEGZjjYIrv6aK-34" value="Verifikasi Data" style="rounded=1;whiteSpace=wrap;html=1;fontSize=10;" vertex="1" parent="JmIvOsPWEGZjjYIrv6aK-29">
          <mxGeometry x="80" y="80" width="80" height="40" as="geometry" />
        </mxCell>
        <mxCell id="JmIvOsPWEGZjjYIrv6aK-35" value="Tampil Dashboard" style="rounded=1;whiteSpace=wrap;html=1;fontSize=10;" vertex="1" parent="JmIvOsPWEGZjjYIrv6aK-29">
          <mxGeometry x="80" y="260" width="80" height="40" as="geometry" />
        </mxCell>
        <mxCell id="JmIvOsPWEGZjjYIrv6aK-36" style="edgeStyle=orthogonalEdgeStyle;rounded=0;orthogonalLoop=1;jettySize=auto;html=1;exitX=0.5;exitY=1;exitDx=0;exitDy=0;entryX=0.5;entryY=0;entryDx=0;entryDy=0;" edge="1" parent="JmIvOsPWEGZjjYIrv6aK-29" source="JmIvOsPWEGZjjYIrv6aK-38" target="JmIvOsPWEGZjjYIrv6aK-41">
          <mxGeometry relative="1" as="geometry" />
        </mxCell>
        <mxCell id="JmIvOsPWEGZjjYIrv6aK-37" value="Y" style="edgeLabel;html=1;align=center;verticalAlign=middle;resizable=0;points=[];fontSize=8;" vertex="1" connectable="0" parent="JmIvOsPWEGZjjYIrv6aK-36">
          <mxGeometry x="-0.451" y="1" relative="1" as="geometry">
            <mxPoint x="-1" as="offset" />
          </mxGeometry>
        </mxCell>
        <mxCell id="JmIvOsPWEGZjjYIrv6aK-38" value="Valid?" style="rhombus;whiteSpace=wrap;html=1;" vertex="1" parent="JmIvOsPWEGZjjYIrv6aK-29">
          <mxGeometry x="80" y="520" width="80" height="80" as="geometry" />
        </mxCell>
        <mxCell id="JmIvOsPWEGZjjYIrv6aK-39" style="edgeStyle=orthogonalEdgeStyle;rounded=0;orthogonalLoop=1;jettySize=auto;html=1;exitX=0.5;exitY=1;exitDx=0;exitDy=0;entryX=0.5;entryY=0;entryDx=0;entryDy=0;" edge="1" parent="JmIvOsPWEGZjjYIrv6aK-29" source="JmIvOsPWEGZjjYIrv6aK-40" target="JmIvOsPWEGZjjYIrv6aK-38">
          <mxGeometry relative="1" as="geometry" />
        </mxCell>
        <mxCell id="JmIvOsPWEGZjjYIrv6aK-40" value="Validasi Data" style="rounded=1;whiteSpace=wrap;html=1;fontSize=10;" vertex="1" parent="JmIvOsPWEGZjjYIrv6aK-29">
          <mxGeometry x="80" y="460" width="80" height="40" as="geometry" />
        </mxCell>
        <mxCell id="JmIvOsPWEGZjjYIrv6aK-41" value="Tampil Sukses Alert" style="rounded=1;whiteSpace=wrap;html=1;fontSize=10;" vertex="1" parent="JmIvOsPWEGZjjYIrv6aK-29">
          <mxGeometry x="80" y="620" width="80" height="40" as="geometry" />
        </mxCell>
        <mxCell id="JmIvOsPWEGZjjYIrv6aK-42" style="edgeStyle=orthogonalEdgeStyle;rounded=0;orthogonalLoop=1;jettySize=auto;html=1;exitX=0.5;exitY=1;exitDx=0;exitDy=0;entryX=0.5;entryY=0;entryDx=0;entryDy=0;" edge="1" parent="JmIvOsPWEGZjjYIrv6aK-29" source="JmIvOsPWEGZjjYIrv6aK-44" target="JmIvOsPWEGZjjYIrv6aK-47">
          <mxGeometry relative="1" as="geometry" />
        </mxCell>
        <mxCell id="JmIvOsPWEGZjjYIrv6aK-43" value="Y" style="edgeLabel;html=1;align=center;verticalAlign=middle;resizable=0;points=[];fontSize=8;" vertex="1" connectable="0" parent="JmIvOsPWEGZjjYIrv6aK-42">
          <mxGeometry x="-0.451" y="1" relative="1" as="geometry">
            <mxPoint x="-1" as="offset" />
          </mxGeometry>
        </mxCell>
        <mxCell id="JmIvOsPWEGZjjYIrv6aK-44" value="Valid?" style="rhombus;whiteSpace=wrap;html=1;" vertex="1" parent="JmIvOsPWEGZjjYIrv6aK-29">
          <mxGeometry x="80" y="860" width="80" height="80" as="geometry" />
        </mxCell>
        <mxCell id="JmIvOsPWEGZjjYIrv6aK-45" style="edgeStyle=orthogonalEdgeStyle;rounded=0;orthogonalLoop=1;jettySize=auto;html=1;exitX=0.5;exitY=1;exitDx=0;exitDy=0;entryX=0.5;entryY=0;entryDx=0;entryDy=0;" edge="1" parent="JmIvOsPWEGZjjYIrv6aK-29" source="JmIvOsPWEGZjjYIrv6aK-46" target="JmIvOsPWEGZjjYIrv6aK-44">
          <mxGeometry relative="1" as="geometry" />
        </mxCell>
        <mxCell id="JmIvOsPWEGZjjYIrv6aK-46" value="Validasi Data" style="rounded=1;whiteSpace=wrap;html=1;fontSize=10;" vertex="1" parent="JmIvOsPWEGZjjYIrv6aK-29">
          <mxGeometry x="80" y="800" width="80" height="40" as="geometry" />
        </mxCell>
        <mxCell id="JmIvOsPWEGZjjYIrv6aK-47" value="Tampil Sukses Alert" style="rounded=1;whiteSpace=wrap;html=1;fontSize=10;" vertex="1" parent="JmIvOsPWEGZjjYIrv6aK-29">
          <mxGeometry x="80" y="960" width="80" height="40" as="geometry" />
        </mxCell>
        <mxCell id="JmIvOsPWEGZjjYIrv6aK-48" value="Valid?" style="rhombus;whiteSpace=wrap;html=1;" vertex="1" parent="JmIvOsPWEGZjjYIrv6aK-29">
          <mxGeometry x="80" y="1140" width="80" height="80" as="geometry" />
        </mxCell>
        <mxCell id="JmIvOsPWEGZjjYIrv6aK-49" style="edgeStyle=orthogonalEdgeStyle;rounded=0;orthogonalLoop=1;jettySize=auto;html=1;exitX=0.5;exitY=1;exitDx=0;exitDy=0;entryX=0.5;entryY=0;entryDx=0;entryDy=0;" edge="1" parent="JmIvOsPWEGZjjYIrv6aK-29" source="JmIvOsPWEGZjjYIrv6aK-50" target="JmIvOsPWEGZjjYIrv6aK-48">
          <mxGeometry relative="1" as="geometry" />
        </mxCell>
        <mxCell id="JmIvOsPWEGZjjYIrv6aK-50" value="Validasi Data" style="rounded=1;whiteSpace=wrap;html=1;fontSize=10;" vertex="1" parent="JmIvOsPWEGZjjYIrv6aK-29">
          <mxGeometry x="80" y="1080" width="80" height="40" as="geometry" />
        </mxCell>
        <mxCell id="JmIvOsPWEGZjjYIrv6aK-51" value="Tampil Form Input Data" style="rounded=1;whiteSpace=wrap;html=1;fontSize=10;" vertex="1" parent="JmIvOsPWEGZjjYIrv6aK-29">
          <mxGeometry x="80" y="340" width="80" height="40" as="geometry" />
        </mxCell>
        <mxCell id="JmIvOsPWEGZjjYIrv6aK-52" value="Tampil Form Edit Data" style="rounded=1;whiteSpace=wrap;html=1;fontSize=10;" vertex="1" parent="JmIvOsPWEGZjjYIrv6aK-29">
          <mxGeometry x="80" y="680" width="80" height="40" as="geometry" />
        </mxCell>
        <mxCell id="JmIvOsPWEGZjjYIrv6aK-53" value="Tampil Sukses Alert" style="rounded=1;whiteSpace=wrap;html=1;fontSize=10;" vertex="1" parent="JmIvOsPWEGZjjYIrv6aK-29">
          <mxGeometry x="80" y="1240" width="80" height="40" as="geometry" />
        </mxCell>
        <mxCell id="JmIvOsPWEGZjjYIrv6aK-54" style="edgeStyle=orthogonalEdgeStyle;rounded=0;orthogonalLoop=1;jettySize=auto;html=1;exitX=0.5;exitY=1;exitDx=0;exitDy=0;entryX=0.5;entryY=0;entryDx=0;entryDy=0;" edge="1" parent="JmIvOsPWEGZjjYIrv6aK-29" source="JmIvOsPWEGZjjYIrv6aK-48" target="JmIvOsPWEGZjjYIrv6aK-53">
          <mxGeometry relative="1" as="geometry" />
        </mxCell>
        <mxCell id="JmIvOsPWEGZjjYIrv6aK-55" value="Y" style="edgeLabel;html=1;align=center;verticalAlign=middle;resizable=0;points=[];fontSize=8;" vertex="1" connectable="0" parent="JmIvOsPWEGZjjYIrv6aK-54">
          <mxGeometry x="-0.451" y="1" relative="1" as="geometry">
            <mxPoint x="-1" as="offset" />
          </mxGeometry>
        </mxCell>
        <mxCell id="JmIvOsPWEGZjjYIrv6aK-56" style="edgeStyle=orthogonalEdgeStyle;rounded=0;orthogonalLoop=1;jettySize=auto;html=1;entryX=1;entryY=0.5;entryDx=0;entryDy=0;" edge="1" parent="1" source="JmIvOsPWEGZjjYIrv6aK-32" target="JmIvOsPWEGZjjYIrv6aK-2">
          <mxGeometry relative="1" as="geometry">
            <Array as="points">
              <mxPoint x="480" y="300" />
              <mxPoint x="480" y="165" />
            </Array>
          </mxGeometry>
        </mxCell>
        <mxCell id="JmIvOsPWEGZjjYIrv6aK-57" value="N" style="edgeLabel;html=1;align=center;verticalAlign=middle;resizable=0;points=[];" vertex="1" connectable="0" parent="JmIvOsPWEGZjjYIrv6aK-56">
          <mxGeometry x="-0.7449" y="-1" relative="1" as="geometry">
            <mxPoint x="-2" as="offset" />
          </mxGeometry>
        </mxCell>
        <mxCell id="JmIvOsPWEGZjjYIrv6aK-58" style="edgeStyle=orthogonalEdgeStyle;rounded=0;orthogonalLoop=1;jettySize=auto;html=1;entryX=1;entryY=0.5;entryDx=0;entryDy=0;" edge="1" parent="1" source="JmIvOsPWEGZjjYIrv6aK-35" target="JmIvOsPWEGZjjYIrv6aK-7">
          <mxGeometry relative="1" as="geometry" />
        </mxCell>
        <mxCell id="JmIvOsPWEGZjjYIrv6aK-59" style="edgeStyle=orthogonalEdgeStyle;rounded=0;orthogonalLoop=1;jettySize=auto;html=1;entryX=0;entryY=0.5;entryDx=0;entryDy=0;" edge="1" parent="1" source="JmIvOsPWEGZjjYIrv6aK-13" target="JmIvOsPWEGZjjYIrv6aK-40">
          <mxGeometry relative="1" as="geometry" />
        </mxCell>
        <mxCell id="JmIvOsPWEGZjjYIrv6aK-60" style="edgeStyle=orthogonalEdgeStyle;rounded=0;orthogonalLoop=1;jettySize=auto;html=1;entryX=1;entryY=0.5;entryDx=0;entryDy=0;exitX=1;exitY=0.5;exitDx=0;exitDy=0;" edge="1" parent="1" source="JmIvOsPWEGZjjYIrv6aK-38" target="JmIvOsPWEGZjjYIrv6aK-12">
          <mxGeometry relative="1" as="geometry">
            <Array as="points">
              <mxPoint x="480" y="680" />
              <mxPoint x="480" y="540" />
            </Array>
          </mxGeometry>
        </mxCell>
        <mxCell id="JmIvOsPWEGZjjYIrv6aK-61" value="N" style="edgeLabel;html=1;align=center;verticalAlign=middle;resizable=0;points=[];" vertex="1" connectable="0" parent="JmIvOsPWEGZjjYIrv6aK-60">
          <mxGeometry x="-0.6245" relative="1" as="geometry">
            <mxPoint x="-1" as="offset" />
          </mxGeometry>
        </mxCell>
        <mxCell id="JmIvOsPWEGZjjYIrv6aK-62" style="edgeStyle=orthogonalEdgeStyle;rounded=0;orthogonalLoop=1;jettySize=auto;html=1;entryX=0;entryY=0.5;entryDx=0;entryDy=0;" edge="1" parent="1" source="JmIvOsPWEGZjjYIrv6aK-19" target="JmIvOsPWEGZjjYIrv6aK-46">
          <mxGeometry relative="1" as="geometry" />
        </mxCell>
        <mxCell id="JmIvOsPWEGZjjYIrv6aK-63" style="edgeStyle=orthogonalEdgeStyle;rounded=0;orthogonalLoop=1;jettySize=auto;html=1;entryX=1;entryY=0.5;entryDx=0;entryDy=0;" edge="1" parent="1" source="JmIvOsPWEGZjjYIrv6aK-44" target="JmIvOsPWEGZjjYIrv6aK-18">
          <mxGeometry relative="1" as="geometry">
            <Array as="points">
              <mxPoint x="481" y="1020" />
              <mxPoint x="481" y="880" />
            </Array>
          </mxGeometry>
        </mxCell>
        <mxCell id="JmIvOsPWEGZjjYIrv6aK-64" value="N" style="edgeLabel;html=1;align=center;verticalAlign=middle;resizable=0;points=[];" vertex="1" connectable="0" parent="JmIvOsPWEGZjjYIrv6aK-63">
          <mxGeometry x="-0.6245" relative="1" as="geometry">
            <mxPoint x="-1" as="offset" />
          </mxGeometry>
        </mxCell>
        <mxCell id="JmIvOsPWEGZjjYIrv6aK-65" style="edgeStyle=orthogonalEdgeStyle;rounded=0;orthogonalLoop=1;jettySize=auto;html=1;entryX=0;entryY=0.5;entryDx=0;entryDy=0;" edge="1" parent="1" source="JmIvOsPWEGZjjYIrv6aK-27" target="JmIvOsPWEGZjjYIrv6aK-50">
          <mxGeometry relative="1" as="geometry" />
        </mxCell>
        <mxCell id="JmIvOsPWEGZjjYIrv6aK-66" style="edgeStyle=orthogonalEdgeStyle;rounded=0;orthogonalLoop=1;jettySize=auto;html=1;entryX=1;entryY=0.5;entryDx=0;entryDy=0;" edge="1" parent="1" source="JmIvOsPWEGZjjYIrv6aK-48" target="JmIvOsPWEGZjjYIrv6aK-26">
          <mxGeometry relative="1" as="geometry">
            <Array as="points">
              <mxPoint x="480" y="1300" />
              <mxPoint x="480" y="1160" />
            </Array>
          </mxGeometry>
        </mxCell>
        <mxCell id="JmIvOsPWEGZjjYIrv6aK-67" value="N" style="edgeLabel;html=1;align=center;verticalAlign=middle;resizable=0;points=[];" vertex="1" connectable="0" parent="JmIvOsPWEGZjjYIrv6aK-66">
          <mxGeometry x="-0.6245" relative="1" as="geometry">
            <mxPoint x="-1" as="offset" />
          </mxGeometry>
        </mxCell>
        <mxCell id="JmIvOsPWEGZjjYIrv6aK-68" value="" style="edgeStyle=orthogonalEdgeStyle;rounded=0;orthogonalLoop=1;jettySize=auto;html=1;entryX=0;entryY=0.5;entryDx=0;entryDy=0;" edge="1" parent="1" source="JmIvOsPWEGZjjYIrv6aK-10" target="JmIvOsPWEGZjjYIrv6aK-51">
          <mxGeometry relative="1" as="geometry" />
        </mxCell>
        <mxCell id="JmIvOsPWEGZjjYIrv6aK-69" value="Y" style="edgeLabel;html=1;align=center;verticalAlign=middle;resizable=0;points=[];" vertex="1" connectable="0" parent="JmIvOsPWEGZjjYIrv6aK-68">
          <mxGeometry x="0.32" y="1" relative="1" as="geometry">
            <mxPoint x="-47" y="1" as="offset" />
          </mxGeometry>
        </mxCell>
        <mxCell id="JmIvOsPWEGZjjYIrv6aK-70" style="edgeStyle=orthogonalEdgeStyle;rounded=0;orthogonalLoop=1;jettySize=auto;html=1;exitX=0.5;exitY=1;exitDx=0;exitDy=0;entryX=0.5;entryY=0;entryDx=0;entryDy=0;" edge="1" parent="1" source="JmIvOsPWEGZjjYIrv6aK-51" target="JmIvOsPWEGZjjYIrv6aK-12">
          <mxGeometry relative="1" as="geometry">
            <Array as="points">
              <mxPoint x="400" y="510" />
              <mxPoint x="210" y="510" />
            </Array>
          </mxGeometry>
        </mxCell>
        <mxCell id="JmIvOsPWEGZjjYIrv6aK-71" value="" style="edgeStyle=orthogonalEdgeStyle;rounded=0;orthogonalLoop=1;jettySize=auto;html=1;entryX=0;entryY=0.5;entryDx=0;entryDy=0;" edge="1" parent="1" target="JmIvOsPWEGZjjYIrv6aK-52">
          <mxGeometry relative="1" as="geometry">
            <mxPoint x="140" y="820" as="sourcePoint" />
          </mxGeometry>
        </mxCell>
        <mxCell id="JmIvOsPWEGZjjYIrv6aK-72" value="Y" style="edgeLabel;html=1;align=center;verticalAlign=middle;resizable=0;points=[];" vertex="1" connectable="0" parent="JmIvOsPWEGZjjYIrv6aK-71">
          <mxGeometry x="0.32" y="1" relative="1" as="geometry">
            <mxPoint x="-46" y="1" as="offset" />
          </mxGeometry>
        </mxCell>
        <mxCell id="JmIvOsPWEGZjjYIrv6aK-73" style="edgeStyle=orthogonalEdgeStyle;rounded=0;orthogonalLoop=1;jettySize=auto;html=1;entryX=0.5;entryY=0;entryDx=0;entryDy=0;exitX=0.5;exitY=1;exitDx=0;exitDy=0;" edge="1" parent="1" source="JmIvOsPWEGZjjYIrv6aK-52" target="JmIvOsPWEGZjjYIrv6aK-18">
          <mxGeometry relative="1" as="geometry">
            <Array as="points">
              <mxPoint x="400" y="850" />
              <mxPoint x="201" y="850" />
            </Array>
          </mxGeometry>
        </mxCell>
        <mxCell id="JmIvOsPWEGZjjYIrv6aK-74" style="edgeStyle=orthogonalEdgeStyle;rounded=0;orthogonalLoop=1;jettySize=auto;html=1;entryX=1;entryY=0.5;entryDx=0;entryDy=0;" edge="1" parent="1" source="JmIvOsPWEGZjjYIrv6aK-47" target="JmIvOsPWEGZjjYIrv6aK-28">
          <mxGeometry relative="1" as="geometry">
            <Array as="points">
              <mxPoint x="500" y="1100" />
              <mxPoint x="500" y="1435" />
            </Array>
          </mxGeometry>
        </mxCell>
        <mxCell id="JmIvOsPWEGZjjYIrv6aK-75" value="" style="edgeStyle=orthogonalEdgeStyle;rounded=0;orthogonalLoop=1;jettySize=auto;html=1;" edge="1" parent="1" source="JmIvOsPWEGZjjYIrv6aK-53" target="JmIvOsPWEGZjjYIrv6aK-28">
          <mxGeometry relative="1" as="geometry">
            <mxPoint x="160" y="1500" as="targetPoint" />
            <mxPoint x="360" y="1420" as="sourcePoint" />
          </mxGeometry>
        </mxCell>
        <mxCell id="JmIvOsPWEGZjjYIrv6aK-76" style="edgeStyle=orthogonalEdgeStyle;rounded=0;orthogonalLoop=1;jettySize=auto;html=1;entryX=0.5;entryY=1;entryDx=0;entryDy=0;" edge="1" parent="1" source="JmIvOsPWEGZjjYIrv6aK-41" target="JmIvOsPWEGZjjYIrv6aK-28">
          <mxGeometry relative="1" as="geometry">
            <Array as="points">
              <mxPoint x="510" y="760" />
              <mxPoint x="510" y="1470" />
              <mxPoint x="160" y="1470" />
            </Array>
          </mxGeometry>
        </mxCell>
        <mxCell id="JmIvOsPWEGZjjYIrv6aK-77" style="edgeStyle=orthogonalEdgeStyle;rounded=0;orthogonalLoop=1;jettySize=auto;html=1;entryX=0;entryY=0.5;entryDx=0;entryDy=0;" edge="1" parent="1" source="JmIvOsPWEGZjjYIrv6aK-5" target="JmIvOsPWEGZjjYIrv6aK-34">
          <mxGeometry relative="1" as="geometry" />
        </mxCell>
      </root>
    </mxGraphModel>
  </diagram>
  <diagram id="JOCoZ5ZiJddXLM_3FaJQ" name="testimoni">
    <mxGraphModel dx="1060" dy="561" grid="1" gridSize="10" guides="1" tooltips="1" connect="1" arrows="1" fold="1" page="1" pageScale="1" pageWidth="850" pageHeight="1100" math="0" shadow="0">
      <root>
        <mxCell id="0" />
        <mxCell id="1" parent="0" />
        <mxCell id="nQFOjEP4VFFsKP7OlEdj-1" value="Actor" style="swimlane;whiteSpace=wrap" vertex="1" parent="1">
          <mxGeometry x="40" y="120" width="240" height="1360" as="geometry" />
        </mxCell>
        <mxCell id="nQFOjEP4VFFsKP7OlEdj-2" value="" style="ellipse;shape=startState;fillColor=#000000;strokeColor=#000000;" vertex="1" parent="nQFOjEP4VFFsKP7OlEdj-1">
          <mxGeometry x="105" y="30" width="30" height="30" as="geometry" />
        </mxCell>
        <mxCell id="nQFOjEP4VFFsKP7OlEdj-3" value="" style="edgeStyle=elbowEdgeStyle;elbow=horizontal;verticalAlign=bottom;endArrow=open;endSize=8;strokeColor=#000000;endFill=1;rounded=0;entryX=0.5;entryY=0;entryDx=0;entryDy=0;entryPerimeter=0;" edge="1" parent="nQFOjEP4VFFsKP7OlEdj-1">
          <mxGeometry x="100" y="40" as="geometry">
            <mxPoint x="115" y="100" as="targetPoint" />
            <mxPoint x="114.71428571428578" y="100" as="sourcePoint" />
          </mxGeometry>
        </mxCell>
        <mxCell id="nQFOjEP4VFFsKP7OlEdj-4" value="" style="edgeStyle=elbowEdgeStyle;elbow=horizontal;verticalAlign=bottom;endArrow=classic;endSize=8;strokeColor=#000000;endFill=1;rounded=0;" edge="1" parent="nQFOjEP4VFFsKP7OlEdj-1" source="nQFOjEP4VFFsKP7OlEdj-2">
          <mxGeometry x="100" y="40" as="geometry">
            <mxPoint x="120" y="80" as="targetPoint" />
            <mxPoint x="155" y="190" as="sourcePoint" />
          </mxGeometry>
        </mxCell>
        <mxCell id="nQFOjEP4VFFsKP7OlEdj-5" value="Login" style="rounded=1;whiteSpace=wrap;html=1;fontSize=10;" vertex="1" parent="nQFOjEP4VFFsKP7OlEdj-1">
          <mxGeometry x="80" y="80" width="80" height="40" as="geometry" />
        </mxCell>
        <mxCell id="nQFOjEP4VFFsKP7OlEdj-6" style="edgeStyle=orthogonalEdgeStyle;rounded=0;orthogonalLoop=1;jettySize=auto;html=1;exitX=0.5;exitY=1;exitDx=0;exitDy=0;entryX=0.5;entryY=0;entryDx=0;entryDy=0;entryPerimeter=0;" edge="1" parent="nQFOjEP4VFFsKP7OlEdj-1" source="nQFOjEP4VFFsKP7OlEdj-7" target="nQFOjEP4VFFsKP7OlEdj-10">
          <mxGeometry relative="1" as="geometry" />
        </mxCell>
        <mxCell id="nQFOjEP4VFFsKP7OlEdj-7" value="Pilih Menu Testimoni" style="rounded=1;whiteSpace=wrap;html=1;fontSize=10;" vertex="1" parent="nQFOjEP4VFFsKP7OlEdj-1">
          <mxGeometry x="20" y="260" width="80" height="40" as="geometry" />
        </mxCell>
        <mxCell id="nQFOjEP4VFFsKP7OlEdj-8" style="edgeStyle=orthogonalEdgeStyle;rounded=0;orthogonalLoop=1;jettySize=auto;html=1;" edge="1" parent="nQFOjEP4VFFsKP7OlEdj-1" source="nQFOjEP4VFFsKP7OlEdj-10" target="nQFOjEP4VFFsKP7OlEdj-16">
          <mxGeometry relative="1" as="geometry" />
        </mxCell>
        <mxCell id="nQFOjEP4VFFsKP7OlEdj-9" value="N" style="edgeLabel;html=1;align=center;verticalAlign=middle;resizable=0;points=[];" vertex="1" connectable="0" parent="nQFOjEP4VFFsKP7OlEdj-8">
          <mxGeometry y="4" relative="1" as="geometry">
            <mxPoint x="-4" as="offset" />
          </mxGeometry>
        </mxCell>
        <mxCell id="nQFOjEP4VFFsKP7OlEdj-10" value="Tambah &lt;br style=&quot;font-size: 10px;&quot;&gt;Testimoni" style="strokeWidth=2;html=1;shape=mxgraph.flowchart.decision;whiteSpace=wrap;fontSize=10;" vertex="1" parent="nQFOjEP4VFFsKP7OlEdj-1">
          <mxGeometry x="20" y="320" width="80" height="80" as="geometry" />
        </mxCell>
        <mxCell id="nQFOjEP4VFFsKP7OlEdj-11" value="" style="edgeStyle=orthogonalEdgeStyle;rounded=0;orthogonalLoop=1;jettySize=auto;html=1;" edge="1" parent="nQFOjEP4VFFsKP7OlEdj-1" source="nQFOjEP4VFFsKP7OlEdj-12" target="nQFOjEP4VFFsKP7OlEdj-13">
          <mxGeometry relative="1" as="geometry" />
        </mxCell>
        <mxCell id="nQFOjEP4VFFsKP7OlEdj-12" value="Input Data Testimoni" style="rounded=1;whiteSpace=wrap;html=1;fontSize=10;" vertex="1" parent="nQFOjEP4VFFsKP7OlEdj-1">
          <mxGeometry x="130" y="400" width="80" height="40" as="geometry" />
        </mxCell>
        <mxCell id="nQFOjEP4VFFsKP7OlEdj-13" value="Submit" style="rounded=1;whiteSpace=wrap;html=1;fontSize=10;" vertex="1" parent="nQFOjEP4VFFsKP7OlEdj-1">
          <mxGeometry x="130" y="460" width="80" height="40" as="geometry" />
        </mxCell>
        <mxCell id="nQFOjEP4VFFsKP7OlEdj-14" style="edgeStyle=orthogonalEdgeStyle;rounded=0;orthogonalLoop=1;jettySize=auto;html=1;entryX=0.5;entryY=0;entryDx=0;entryDy=0;entryPerimeter=0;" edge="1" parent="nQFOjEP4VFFsKP7OlEdj-1">
          <mxGeometry relative="1" as="geometry">
            <mxPoint x="60" y="740" as="sourcePoint" />
            <mxPoint x="60" y="1020" as="targetPoint" />
          </mxGeometry>
        </mxCell>
        <mxCell id="nQFOjEP4VFFsKP7OlEdj-15" value="N" style="edgeLabel;html=1;align=center;verticalAlign=middle;resizable=0;points=[];" vertex="1" connectable="0" parent="nQFOjEP4VFFsKP7OlEdj-14">
          <mxGeometry x="0.0588" y="2" relative="1" as="geometry">
            <mxPoint x="-2" as="offset" />
          </mxGeometry>
        </mxCell>
        <mxCell id="nQFOjEP4VFFsKP7OlEdj-16" value="&lt;font style=&quot;font-size: 10px;&quot;&gt;Edit&lt;br&gt;Testimoni&lt;br&gt;&lt;/font&gt;" style="strokeWidth=2;html=1;shape=mxgraph.flowchart.decision;whiteSpace=wrap;" vertex="1" parent="nQFOjEP4VFFsKP7OlEdj-1">
          <mxGeometry x="20" y="660" width="80" height="80" as="geometry" />
        </mxCell>
        <mxCell id="nQFOjEP4VFFsKP7OlEdj-17" value="" style="edgeStyle=orthogonalEdgeStyle;rounded=0;orthogonalLoop=1;jettySize=auto;html=1;" edge="1" parent="nQFOjEP4VFFsKP7OlEdj-1" source="nQFOjEP4VFFsKP7OlEdj-18" target="nQFOjEP4VFFsKP7OlEdj-19">
          <mxGeometry relative="1" as="geometry" />
        </mxCell>
        <mxCell id="nQFOjEP4VFFsKP7OlEdj-18" value="Edit Data Testimoni" style="rounded=1;whiteSpace=wrap;html=1;fontSize=10;" vertex="1" parent="nQFOjEP4VFFsKP7OlEdj-1">
          <mxGeometry x="121" y="740" width="80" height="40" as="geometry" />
        </mxCell>
        <mxCell id="nQFOjEP4VFFsKP7OlEdj-19" value="Submit" style="rounded=1;whiteSpace=wrap;html=1;fontSize=10;" vertex="1" parent="nQFOjEP4VFFsKP7OlEdj-1">
          <mxGeometry x="121" y="800" width="80" height="40" as="geometry" />
        </mxCell>
        <mxCell id="nQFOjEP4VFFsKP7OlEdj-20" value="" style="edgeStyle=orthogonalEdgeStyle;rounded=0;orthogonalLoop=1;jettySize=auto;html=1;exitX=1;exitY=0.5;exitDx=0;exitDy=0;exitPerimeter=0;" edge="1" parent="nQFOjEP4VFFsKP7OlEdj-1" source="nQFOjEP4VFFsKP7OlEdj-24" target="nQFOjEP4VFFsKP7OlEdj-26">
          <mxGeometry relative="1" as="geometry">
            <mxPoint x="100" y="1060" as="sourcePoint" />
          </mxGeometry>
        </mxCell>
        <mxCell id="nQFOjEP4VFFsKP7OlEdj-21" value="Y" style="edgeLabel;html=1;align=center;verticalAlign=middle;resizable=0;points=[];" vertex="1" connectable="0" parent="nQFOjEP4VFFsKP7OlEdj-20">
          <mxGeometry x="0.1086" y="1" relative="1" as="geometry">
            <mxPoint x="-5" as="offset" />
          </mxGeometry>
        </mxCell>
        <mxCell id="nQFOjEP4VFFsKP7OlEdj-22" style="edgeStyle=orthogonalEdgeStyle;rounded=0;orthogonalLoop=1;jettySize=auto;html=1;exitX=0.5;exitY=1;exitDx=0;exitDy=0;exitPerimeter=0;entryX=0;entryY=0.5;entryDx=0;entryDy=0;" edge="1" parent="nQFOjEP4VFFsKP7OlEdj-1" source="nQFOjEP4VFFsKP7OlEdj-24" target="nQFOjEP4VFFsKP7OlEdj-28">
          <mxGeometry relative="1" as="geometry" />
        </mxCell>
        <mxCell id="nQFOjEP4VFFsKP7OlEdj-23" value="N" style="edgeLabel;html=1;align=center;verticalAlign=middle;resizable=0;points=[];" vertex="1" connectable="0" parent="nQFOjEP4VFFsKP7OlEdj-22">
          <mxGeometry x="-0.0588" y="1" relative="1" as="geometry">
            <mxPoint x="-2" as="offset" />
          </mxGeometry>
        </mxCell>
        <mxCell id="nQFOjEP4VFFsKP7OlEdj-24" value="&lt;font style=&quot;font-size: 10px;&quot;&gt;Delete Testimoni&lt;/font&gt;" style="strokeWidth=2;html=1;shape=mxgraph.flowchart.decision;whiteSpace=wrap;" vertex="1" parent="nQFOjEP4VFFsKP7OlEdj-1">
          <mxGeometry x="20" y="1000" width="80" height="80" as="geometry" />
        </mxCell>
        <mxCell id="nQFOjEP4VFFsKP7OlEdj-25" value="" style="edgeStyle=orthogonalEdgeStyle;rounded=0;orthogonalLoop=1;jettySize=auto;html=1;" edge="1" parent="nQFOjEP4VFFsKP7OlEdj-1" source="nQFOjEP4VFFsKP7OlEdj-26" target="nQFOjEP4VFFsKP7OlEdj-27">
          <mxGeometry relative="1" as="geometry" />
        </mxCell>
        <mxCell id="nQFOjEP4VFFsKP7OlEdj-26" value="Pilih Data Testimoni" style="rounded=1;whiteSpace=wrap;html=1;fontSize=10;" vertex="1" parent="nQFOjEP4VFFsKP7OlEdj-1">
          <mxGeometry x="130" y="1020" width="80" height="40" as="geometry" />
        </mxCell>
        <mxCell id="nQFOjEP4VFFsKP7OlEdj-27" value="Hapus Data Testimoni" style="rounded=1;whiteSpace=wrap;html=1;fontSize=10;" vertex="1" parent="nQFOjEP4VFFsKP7OlEdj-1">
          <mxGeometry x="130" y="1080" width="80" height="40" as="geometry" />
        </mxCell>
        <mxCell id="nQFOjEP4VFFsKP7OlEdj-28" value="" style="ellipse;shape=endState;fillColor=#000000;strokeColor=#000000;" vertex="1" parent="nQFOjEP4VFFsKP7OlEdj-1">
          <mxGeometry x="105" y="1300" width="30" height="30" as="geometry" />
        </mxCell>
        <mxCell id="nQFOjEP4VFFsKP7OlEdj-29" value="Sistem" style="swimlane;whiteSpace=wrap;startSize=23;" vertex="1" parent="1">
          <mxGeometry x="280" y="120" width="240" height="1360" as="geometry" />
        </mxCell>
        <mxCell id="nQFOjEP4VFFsKP7OlEdj-30" style="edgeStyle=orthogonalEdgeStyle;rounded=0;orthogonalLoop=1;jettySize=auto;html=1;exitX=0.5;exitY=1;exitDx=0;exitDy=0;" edge="1" parent="nQFOjEP4VFFsKP7OlEdj-29" source="nQFOjEP4VFFsKP7OlEdj-32" target="nQFOjEP4VFFsKP7OlEdj-35">
          <mxGeometry relative="1" as="geometry" />
        </mxCell>
        <mxCell id="nQFOjEP4VFFsKP7OlEdj-31" value="Y" style="edgeLabel;html=1;align=center;verticalAlign=middle;resizable=0;points=[];" vertex="1" connectable="0" parent="nQFOjEP4VFFsKP7OlEdj-30">
          <mxGeometry x="0.4902" y="1" relative="1" as="geometry">
            <mxPoint x="-1" y="-16" as="offset" />
          </mxGeometry>
        </mxCell>
        <mxCell id="nQFOjEP4VFFsKP7OlEdj-32" value="Valid?" style="rhombus;whiteSpace=wrap;html=1;" vertex="1" parent="nQFOjEP4VFFsKP7OlEdj-29">
          <mxGeometry x="80" y="140" width="80" height="80" as="geometry" />
        </mxCell>
        <mxCell id="nQFOjEP4VFFsKP7OlEdj-33" style="edgeStyle=orthogonalEdgeStyle;rounded=0;orthogonalLoop=1;jettySize=auto;html=1;exitX=0.5;exitY=1;exitDx=0;exitDy=0;entryX=0.5;entryY=0;entryDx=0;entryDy=0;" edge="1" parent="nQFOjEP4VFFsKP7OlEdj-29" source="nQFOjEP4VFFsKP7OlEdj-34" target="nQFOjEP4VFFsKP7OlEdj-32">
          <mxGeometry relative="1" as="geometry" />
        </mxCell>
        <mxCell id="nQFOjEP4VFFsKP7OlEdj-34" value="Verifikasi Data" style="rounded=1;whiteSpace=wrap;html=1;fontSize=10;" vertex="1" parent="nQFOjEP4VFFsKP7OlEdj-29">
          <mxGeometry x="80" y="80" width="80" height="40" as="geometry" />
        </mxCell>
        <mxCell id="nQFOjEP4VFFsKP7OlEdj-35" value="Tampil Dashboard" style="rounded=1;whiteSpace=wrap;html=1;fontSize=10;" vertex="1" parent="nQFOjEP4VFFsKP7OlEdj-29">
          <mxGeometry x="80" y="260" width="80" height="40" as="geometry" />
        </mxCell>
        <mxCell id="nQFOjEP4VFFsKP7OlEdj-36" style="edgeStyle=orthogonalEdgeStyle;rounded=0;orthogonalLoop=1;jettySize=auto;html=1;exitX=0.5;exitY=1;exitDx=0;exitDy=0;entryX=0.5;entryY=0;entryDx=0;entryDy=0;" edge="1" parent="nQFOjEP4VFFsKP7OlEdj-29" source="nQFOjEP4VFFsKP7OlEdj-38" target="nQFOjEP4VFFsKP7OlEdj-41">
          <mxGeometry relative="1" as="geometry" />
        </mxCell>
        <mxCell id="nQFOjEP4VFFsKP7OlEdj-37" value="Y" style="edgeLabel;html=1;align=center;verticalAlign=middle;resizable=0;points=[];fontSize=8;" vertex="1" connectable="0" parent="nQFOjEP4VFFsKP7OlEdj-36">
          <mxGeometry x="-0.451" y="1" relative="1" as="geometry">
            <mxPoint x="-1" as="offset" />
          </mxGeometry>
        </mxCell>
        <mxCell id="nQFOjEP4VFFsKP7OlEdj-38" value="Valid?" style="rhombus;whiteSpace=wrap;html=1;" vertex="1" parent="nQFOjEP4VFFsKP7OlEdj-29">
          <mxGeometry x="80" y="520" width="80" height="80" as="geometry" />
        </mxCell>
        <mxCell id="nQFOjEP4VFFsKP7OlEdj-39" style="edgeStyle=orthogonalEdgeStyle;rounded=0;orthogonalLoop=1;jettySize=auto;html=1;exitX=0.5;exitY=1;exitDx=0;exitDy=0;entryX=0.5;entryY=0;entryDx=0;entryDy=0;" edge="1" parent="nQFOjEP4VFFsKP7OlEdj-29" source="nQFOjEP4VFFsKP7OlEdj-40" target="nQFOjEP4VFFsKP7OlEdj-38">
          <mxGeometry relative="1" as="geometry" />
        </mxCell>
        <mxCell id="nQFOjEP4VFFsKP7OlEdj-40" value="Validasi Data" style="rounded=1;whiteSpace=wrap;html=1;fontSize=10;" vertex="1" parent="nQFOjEP4VFFsKP7OlEdj-29">
          <mxGeometry x="80" y="460" width="80" height="40" as="geometry" />
        </mxCell>
        <mxCell id="nQFOjEP4VFFsKP7OlEdj-41" value="Tampil Sukses Alert" style="rounded=1;whiteSpace=wrap;html=1;fontSize=10;" vertex="1" parent="nQFOjEP4VFFsKP7OlEdj-29">
          <mxGeometry x="80" y="620" width="80" height="40" as="geometry" />
        </mxCell>
        <mxCell id="nQFOjEP4VFFsKP7OlEdj-42" style="edgeStyle=orthogonalEdgeStyle;rounded=0;orthogonalLoop=1;jettySize=auto;html=1;exitX=0.5;exitY=1;exitDx=0;exitDy=0;entryX=0.5;entryY=0;entryDx=0;entryDy=0;" edge="1" parent="nQFOjEP4VFFsKP7OlEdj-29" source="nQFOjEP4VFFsKP7OlEdj-44" target="nQFOjEP4VFFsKP7OlEdj-47">
          <mxGeometry relative="1" as="geometry" />
        </mxCell>
        <mxCell id="nQFOjEP4VFFsKP7OlEdj-43" value="Y" style="edgeLabel;html=1;align=center;verticalAlign=middle;resizable=0;points=[];fontSize=8;" vertex="1" connectable="0" parent="nQFOjEP4VFFsKP7OlEdj-42">
          <mxGeometry x="-0.451" y="1" relative="1" as="geometry">
            <mxPoint x="-1" as="offset" />
          </mxGeometry>
        </mxCell>
        <mxCell id="nQFOjEP4VFFsKP7OlEdj-44" value="Valid?" style="rhombus;whiteSpace=wrap;html=1;" vertex="1" parent="nQFOjEP4VFFsKP7OlEdj-29">
          <mxGeometry x="80" y="860" width="80" height="80" as="geometry" />
        </mxCell>
        <mxCell id="nQFOjEP4VFFsKP7OlEdj-45" style="edgeStyle=orthogonalEdgeStyle;rounded=0;orthogonalLoop=1;jettySize=auto;html=1;exitX=0.5;exitY=1;exitDx=0;exitDy=0;entryX=0.5;entryY=0;entryDx=0;entryDy=0;" edge="1" parent="nQFOjEP4VFFsKP7OlEdj-29" source="nQFOjEP4VFFsKP7OlEdj-46" target="nQFOjEP4VFFsKP7OlEdj-44">
          <mxGeometry relative="1" as="geometry" />
        </mxCell>
        <mxCell id="nQFOjEP4VFFsKP7OlEdj-46" value="Validasi Data" style="rounded=1;whiteSpace=wrap;html=1;fontSize=10;" vertex="1" parent="nQFOjEP4VFFsKP7OlEdj-29">
          <mxGeometry x="80" y="800" width="80" height="40" as="geometry" />
        </mxCell>
        <mxCell id="nQFOjEP4VFFsKP7OlEdj-47" value="Tampil Sukses Alert" style="rounded=1;whiteSpace=wrap;html=1;fontSize=10;" vertex="1" parent="nQFOjEP4VFFsKP7OlEdj-29">
          <mxGeometry x="80" y="960" width="80" height="40" as="geometry" />
        </mxCell>
        <mxCell id="nQFOjEP4VFFsKP7OlEdj-48" value="Valid?" style="rhombus;whiteSpace=wrap;html=1;" vertex="1" parent="nQFOjEP4VFFsKP7OlEdj-29">
          <mxGeometry x="80" y="1140" width="80" height="80" as="geometry" />
        </mxCell>
        <mxCell id="nQFOjEP4VFFsKP7OlEdj-49" style="edgeStyle=orthogonalEdgeStyle;rounded=0;orthogonalLoop=1;jettySize=auto;html=1;exitX=0.5;exitY=1;exitDx=0;exitDy=0;entryX=0.5;entryY=0;entryDx=0;entryDy=0;" edge="1" parent="nQFOjEP4VFFsKP7OlEdj-29" source="nQFOjEP4VFFsKP7OlEdj-50" target="nQFOjEP4VFFsKP7OlEdj-48">
          <mxGeometry relative="1" as="geometry" />
        </mxCell>
        <mxCell id="nQFOjEP4VFFsKP7OlEdj-50" value="Validasi Data" style="rounded=1;whiteSpace=wrap;html=1;fontSize=10;" vertex="1" parent="nQFOjEP4VFFsKP7OlEdj-29">
          <mxGeometry x="80" y="1080" width="80" height="40" as="geometry" />
        </mxCell>
        <mxCell id="nQFOjEP4VFFsKP7OlEdj-51" value="Tampil Form Input Data" style="rounded=1;whiteSpace=wrap;html=1;fontSize=10;" vertex="1" parent="nQFOjEP4VFFsKP7OlEdj-29">
          <mxGeometry x="80" y="340" width="80" height="40" as="geometry" />
        </mxCell>
        <mxCell id="nQFOjEP4VFFsKP7OlEdj-52" value="Tampil Form Edit Data" style="rounded=1;whiteSpace=wrap;html=1;fontSize=10;" vertex="1" parent="nQFOjEP4VFFsKP7OlEdj-29">
          <mxGeometry x="80" y="680" width="80" height="40" as="geometry" />
        </mxCell>
        <mxCell id="nQFOjEP4VFFsKP7OlEdj-53" value="Tampil Sukses Alert" style="rounded=1;whiteSpace=wrap;html=1;fontSize=10;" vertex="1" parent="nQFOjEP4VFFsKP7OlEdj-29">
          <mxGeometry x="80" y="1240" width="80" height="40" as="geometry" />
        </mxCell>
        <mxCell id="nQFOjEP4VFFsKP7OlEdj-54" style="edgeStyle=orthogonalEdgeStyle;rounded=0;orthogonalLoop=1;jettySize=auto;html=1;exitX=0.5;exitY=1;exitDx=0;exitDy=0;entryX=0.5;entryY=0;entryDx=0;entryDy=0;" edge="1" parent="nQFOjEP4VFFsKP7OlEdj-29" source="nQFOjEP4VFFsKP7OlEdj-48" target="nQFOjEP4VFFsKP7OlEdj-53">
          <mxGeometry relative="1" as="geometry" />
        </mxCell>
        <mxCell id="nQFOjEP4VFFsKP7OlEdj-55" value="Y" style="edgeLabel;html=1;align=center;verticalAlign=middle;resizable=0;points=[];fontSize=8;" vertex="1" connectable="0" parent="nQFOjEP4VFFsKP7OlEdj-54">
          <mxGeometry x="-0.451" y="1" relative="1" as="geometry">
            <mxPoint x="-1" as="offset" />
          </mxGeometry>
        </mxCell>
        <mxCell id="nQFOjEP4VFFsKP7OlEdj-56" style="edgeStyle=orthogonalEdgeStyle;rounded=0;orthogonalLoop=1;jettySize=auto;html=1;entryX=1;entryY=0.5;entryDx=0;entryDy=0;" edge="1" parent="1" source="nQFOjEP4VFFsKP7OlEdj-32" target="nQFOjEP4VFFsKP7OlEdj-2">
          <mxGeometry relative="1" as="geometry">
            <Array as="points">
              <mxPoint x="480" y="300" />
              <mxPoint x="480" y="165" />
            </Array>
          </mxGeometry>
        </mxCell>
        <mxCell id="nQFOjEP4VFFsKP7OlEdj-57" value="N" style="edgeLabel;html=1;align=center;verticalAlign=middle;resizable=0;points=[];" vertex="1" connectable="0" parent="nQFOjEP4VFFsKP7OlEdj-56">
          <mxGeometry x="-0.7449" y="-1" relative="1" as="geometry">
            <mxPoint x="-2" as="offset" />
          </mxGeometry>
        </mxCell>
        <mxCell id="nQFOjEP4VFFsKP7OlEdj-58" style="edgeStyle=orthogonalEdgeStyle;rounded=0;orthogonalLoop=1;jettySize=auto;html=1;entryX=1;entryY=0.5;entryDx=0;entryDy=0;" edge="1" parent="1" source="nQFOjEP4VFFsKP7OlEdj-35" target="nQFOjEP4VFFsKP7OlEdj-7">
          <mxGeometry relative="1" as="geometry" />
        </mxCell>
        <mxCell id="nQFOjEP4VFFsKP7OlEdj-59" style="edgeStyle=orthogonalEdgeStyle;rounded=0;orthogonalLoop=1;jettySize=auto;html=1;entryX=0;entryY=0.5;entryDx=0;entryDy=0;" edge="1" parent="1" source="nQFOjEP4VFFsKP7OlEdj-13" target="nQFOjEP4VFFsKP7OlEdj-40">
          <mxGeometry relative="1" as="geometry" />
        </mxCell>
        <mxCell id="nQFOjEP4VFFsKP7OlEdj-60" style="edgeStyle=orthogonalEdgeStyle;rounded=0;orthogonalLoop=1;jettySize=auto;html=1;entryX=1;entryY=0.5;entryDx=0;entryDy=0;exitX=1;exitY=0.5;exitDx=0;exitDy=0;" edge="1" parent="1" source="nQFOjEP4VFFsKP7OlEdj-38" target="nQFOjEP4VFFsKP7OlEdj-12">
          <mxGeometry relative="1" as="geometry">
            <Array as="points">
              <mxPoint x="480" y="680" />
              <mxPoint x="480" y="540" />
            </Array>
          </mxGeometry>
        </mxCell>
        <mxCell id="nQFOjEP4VFFsKP7OlEdj-61" value="N" style="edgeLabel;html=1;align=center;verticalAlign=middle;resizable=0;points=[];" vertex="1" connectable="0" parent="nQFOjEP4VFFsKP7OlEdj-60">
          <mxGeometry x="-0.6245" relative="1" as="geometry">
            <mxPoint x="-1" as="offset" />
          </mxGeometry>
        </mxCell>
        <mxCell id="nQFOjEP4VFFsKP7OlEdj-62" style="edgeStyle=orthogonalEdgeStyle;rounded=0;orthogonalLoop=1;jettySize=auto;html=1;entryX=0;entryY=0.5;entryDx=0;entryDy=0;" edge="1" parent="1" source="nQFOjEP4VFFsKP7OlEdj-19" target="nQFOjEP4VFFsKP7OlEdj-46">
          <mxGeometry relative="1" as="geometry" />
        </mxCell>
        <mxCell id="nQFOjEP4VFFsKP7OlEdj-63" style="edgeStyle=orthogonalEdgeStyle;rounded=0;orthogonalLoop=1;jettySize=auto;html=1;entryX=1;entryY=0.5;entryDx=0;entryDy=0;" edge="1" parent="1" source="nQFOjEP4VFFsKP7OlEdj-44" target="nQFOjEP4VFFsKP7OlEdj-18">
          <mxGeometry relative="1" as="geometry">
            <Array as="points">
              <mxPoint x="481" y="1020" />
              <mxPoint x="481" y="880" />
            </Array>
          </mxGeometry>
        </mxCell>
        <mxCell id="nQFOjEP4VFFsKP7OlEdj-64" value="N" style="edgeLabel;html=1;align=center;verticalAlign=middle;resizable=0;points=[];" vertex="1" connectable="0" parent="nQFOjEP4VFFsKP7OlEdj-63">
          <mxGeometry x="-0.6245" relative="1" as="geometry">
            <mxPoint x="-1" as="offset" />
          </mxGeometry>
        </mxCell>
        <mxCell id="nQFOjEP4VFFsKP7OlEdj-65" style="edgeStyle=orthogonalEdgeStyle;rounded=0;orthogonalLoop=1;jettySize=auto;html=1;entryX=0;entryY=0.5;entryDx=0;entryDy=0;" edge="1" parent="1" source="nQFOjEP4VFFsKP7OlEdj-27" target="nQFOjEP4VFFsKP7OlEdj-50">
          <mxGeometry relative="1" as="geometry" />
        </mxCell>
        <mxCell id="nQFOjEP4VFFsKP7OlEdj-66" style="edgeStyle=orthogonalEdgeStyle;rounded=0;orthogonalLoop=1;jettySize=auto;html=1;entryX=1;entryY=0.5;entryDx=0;entryDy=0;" edge="1" parent="1" source="nQFOjEP4VFFsKP7OlEdj-48" target="nQFOjEP4VFFsKP7OlEdj-26">
          <mxGeometry relative="1" as="geometry">
            <Array as="points">
              <mxPoint x="480" y="1300" />
              <mxPoint x="480" y="1160" />
            </Array>
          </mxGeometry>
        </mxCell>
        <mxCell id="nQFOjEP4VFFsKP7OlEdj-67" value="N" style="edgeLabel;html=1;align=center;verticalAlign=middle;resizable=0;points=[];" vertex="1" connectable="0" parent="nQFOjEP4VFFsKP7OlEdj-66">
          <mxGeometry x="-0.6245" relative="1" as="geometry">
            <mxPoint x="-1" as="offset" />
          </mxGeometry>
        </mxCell>
        <mxCell id="nQFOjEP4VFFsKP7OlEdj-68" value="" style="edgeStyle=orthogonalEdgeStyle;rounded=0;orthogonalLoop=1;jettySize=auto;html=1;entryX=0;entryY=0.5;entryDx=0;entryDy=0;" edge="1" parent="1" source="nQFOjEP4VFFsKP7OlEdj-10" target="nQFOjEP4VFFsKP7OlEdj-51">
          <mxGeometry relative="1" as="geometry" />
        </mxCell>
        <mxCell id="nQFOjEP4VFFsKP7OlEdj-69" value="Y" style="edgeLabel;html=1;align=center;verticalAlign=middle;resizable=0;points=[];" vertex="1" connectable="0" parent="nQFOjEP4VFFsKP7OlEdj-68">
          <mxGeometry x="0.32" y="1" relative="1" as="geometry">
            <mxPoint x="-47" y="1" as="offset" />
          </mxGeometry>
        </mxCell>
        <mxCell id="nQFOjEP4VFFsKP7OlEdj-70" style="edgeStyle=orthogonalEdgeStyle;rounded=0;orthogonalLoop=1;jettySize=auto;html=1;exitX=0.5;exitY=1;exitDx=0;exitDy=0;entryX=0.5;entryY=0;entryDx=0;entryDy=0;" edge="1" parent="1" source="nQFOjEP4VFFsKP7OlEdj-51" target="nQFOjEP4VFFsKP7OlEdj-12">
          <mxGeometry relative="1" as="geometry">
            <Array as="points">
              <mxPoint x="400" y="510" />
              <mxPoint x="210" y="510" />
            </Array>
          </mxGeometry>
        </mxCell>
        <mxCell id="nQFOjEP4VFFsKP7OlEdj-71" value="" style="edgeStyle=orthogonalEdgeStyle;rounded=0;orthogonalLoop=1;jettySize=auto;html=1;entryX=0;entryY=0.5;entryDx=0;entryDy=0;" edge="1" parent="1" target="nQFOjEP4VFFsKP7OlEdj-52">
          <mxGeometry relative="1" as="geometry">
            <mxPoint x="140" y="820" as="sourcePoint" />
          </mxGeometry>
        </mxCell>
        <mxCell id="nQFOjEP4VFFsKP7OlEdj-72" value="Y" style="edgeLabel;html=1;align=center;verticalAlign=middle;resizable=0;points=[];" vertex="1" connectable="0" parent="nQFOjEP4VFFsKP7OlEdj-71">
          <mxGeometry x="0.32" y="1" relative="1" as="geometry">
            <mxPoint x="-46" y="1" as="offset" />
          </mxGeometry>
        </mxCell>
        <mxCell id="nQFOjEP4VFFsKP7OlEdj-73" style="edgeStyle=orthogonalEdgeStyle;rounded=0;orthogonalLoop=1;jettySize=auto;html=1;entryX=0.5;entryY=0;entryDx=0;entryDy=0;exitX=0.5;exitY=1;exitDx=0;exitDy=0;" edge="1" parent="1" source="nQFOjEP4VFFsKP7OlEdj-52" target="nQFOjEP4VFFsKP7OlEdj-18">
          <mxGeometry relative="1" as="geometry">
            <Array as="points">
              <mxPoint x="400" y="850" />
              <mxPoint x="201" y="850" />
            </Array>
          </mxGeometry>
        </mxCell>
        <mxCell id="nQFOjEP4VFFsKP7OlEdj-74" style="edgeStyle=orthogonalEdgeStyle;rounded=0;orthogonalLoop=1;jettySize=auto;html=1;entryX=1;entryY=0.5;entryDx=0;entryDy=0;" edge="1" parent="1" source="nQFOjEP4VFFsKP7OlEdj-47" target="nQFOjEP4VFFsKP7OlEdj-28">
          <mxGeometry relative="1" as="geometry">
            <Array as="points">
              <mxPoint x="500" y="1100" />
              <mxPoint x="500" y="1435" />
            </Array>
          </mxGeometry>
        </mxCell>
        <mxCell id="nQFOjEP4VFFsKP7OlEdj-75" value="" style="edgeStyle=orthogonalEdgeStyle;rounded=0;orthogonalLoop=1;jettySize=auto;html=1;" edge="1" parent="1" source="nQFOjEP4VFFsKP7OlEdj-53" target="nQFOjEP4VFFsKP7OlEdj-28">
          <mxGeometry relative="1" as="geometry">
            <mxPoint x="160" y="1500" as="targetPoint" />
            <mxPoint x="360" y="1420" as="sourcePoint" />
          </mxGeometry>
        </mxCell>
        <mxCell id="nQFOjEP4VFFsKP7OlEdj-76" style="edgeStyle=orthogonalEdgeStyle;rounded=0;orthogonalLoop=1;jettySize=auto;html=1;entryX=0.5;entryY=1;entryDx=0;entryDy=0;" edge="1" parent="1" source="nQFOjEP4VFFsKP7OlEdj-41" target="nQFOjEP4VFFsKP7OlEdj-28">
          <mxGeometry relative="1" as="geometry">
            <Array as="points">
              <mxPoint x="510" y="760" />
              <mxPoint x="510" y="1470" />
              <mxPoint x="160" y="1470" />
            </Array>
          </mxGeometry>
        </mxCell>
        <mxCell id="nQFOjEP4VFFsKP7OlEdj-77" style="edgeStyle=orthogonalEdgeStyle;rounded=0;orthogonalLoop=1;jettySize=auto;html=1;entryX=0;entryY=0.5;entryDx=0;entryDy=0;" edge="1" parent="1" source="nQFOjEP4VFFsKP7OlEdj-5" target="nQFOjEP4VFFsKP7OlEdj-34">
          <mxGeometry relative="1" as="geometry" />
        </mxCell>
      </root>
    </mxGraphModel>
  </diagram>
  <diagram id="e3Q9582oBKrvvxstO3NF" name="transaksi">
    <mxGraphModel dx="1060" dy="561" grid="1" gridSize="10" guides="1" tooltips="1" connect="1" arrows="1" fold="1" page="1" pageScale="1" pageWidth="850" pageHeight="1100" math="0" shadow="0">
      <root>
        <mxCell id="0" />
        <mxCell id="1" parent="0" />
        <mxCell id="qMlhNRbrw62LwZ7wxuKb-1" value="Actor" style="swimlane;whiteSpace=wrap" vertex="1" parent="1">
          <mxGeometry x="40" y="120" width="240" height="1280" as="geometry" />
        </mxCell>
        <mxCell id="qMlhNRbrw62LwZ7wxuKb-2" value="" style="ellipse;shape=startState;fillColor=#000000;strokeColor=#000000;" vertex="1" parent="qMlhNRbrw62LwZ7wxuKb-1">
          <mxGeometry x="105" y="30" width="30" height="30" as="geometry" />
        </mxCell>
        <mxCell id="qMlhNRbrw62LwZ7wxuKb-3" value="" style="edgeStyle=elbowEdgeStyle;elbow=horizontal;verticalAlign=bottom;endArrow=open;endSize=8;strokeColor=#000000;endFill=1;rounded=0;entryX=0.5;entryY=0;entryDx=0;entryDy=0;entryPerimeter=0;" edge="1" parent="qMlhNRbrw62LwZ7wxuKb-1">
          <mxGeometry x="100" y="40" as="geometry">
            <mxPoint x="115" y="100" as="targetPoint" />
            <mxPoint x="114.71428571428578" y="100" as="sourcePoint" />
          </mxGeometry>
        </mxCell>
        <mxCell id="qMlhNRbrw62LwZ7wxuKb-4" value="" style="edgeStyle=elbowEdgeStyle;elbow=horizontal;verticalAlign=bottom;endArrow=classic;endSize=8;strokeColor=#000000;endFill=1;rounded=0;" edge="1" parent="qMlhNRbrw62LwZ7wxuKb-1" source="qMlhNRbrw62LwZ7wxuKb-2">
          <mxGeometry x="100" y="40" as="geometry">
            <mxPoint x="120" y="80" as="targetPoint" />
            <mxPoint x="155" y="190" as="sourcePoint" />
          </mxGeometry>
        </mxCell>
        <mxCell id="qMlhNRbrw62LwZ7wxuKb-5" value="Login" style="rounded=1;whiteSpace=wrap;html=1;fontSize=10;" vertex="1" parent="qMlhNRbrw62LwZ7wxuKb-1">
          <mxGeometry x="80" y="80" width="80" height="40" as="geometry" />
        </mxCell>
        <mxCell id="qMlhNRbrw62LwZ7wxuKb-79" style="edgeStyle=orthogonalEdgeStyle;rounded=0;orthogonalLoop=1;jettySize=auto;html=1;exitX=0.5;exitY=1;exitDx=0;exitDy=0;entryX=0.5;entryY=0;entryDx=0;entryDy=0;" edge="1" parent="qMlhNRbrw62LwZ7wxuKb-1" source="qMlhNRbrw62LwZ7wxuKb-7" target="qMlhNRbrw62LwZ7wxuKb-78">
          <mxGeometry relative="1" as="geometry" />
        </mxCell>
        <mxCell id="qMlhNRbrw62LwZ7wxuKb-7" value="Pilih List Paket" style="rounded=1;whiteSpace=wrap;html=1;fontSize=10;" vertex="1" parent="qMlhNRbrw62LwZ7wxuKb-1">
          <mxGeometry x="80" y="260" width="80" height="40" as="geometry" />
        </mxCell>
        <mxCell id="qMlhNRbrw62LwZ7wxuKb-11" value="" style="edgeStyle=orthogonalEdgeStyle;rounded=0;orthogonalLoop=1;jettySize=auto;html=1;" edge="1" parent="qMlhNRbrw62LwZ7wxuKb-1" source="qMlhNRbrw62LwZ7wxuKb-12" target="qMlhNRbrw62LwZ7wxuKb-13">
          <mxGeometry relative="1" as="geometry" />
        </mxCell>
        <mxCell id="qMlhNRbrw62LwZ7wxuKb-12" value="Input Form Konfirmasi Pesanan" style="rounded=1;whiteSpace=wrap;html=1;fontSize=10;" vertex="1" parent="qMlhNRbrw62LwZ7wxuKb-1">
          <mxGeometry x="80" y="380" width="80" height="40" as="geometry" />
        </mxCell>
        <mxCell id="qMlhNRbrw62LwZ7wxuKb-13" value="Order" style="rounded=1;whiteSpace=wrap;html=1;fontSize=10;" vertex="1" parent="qMlhNRbrw62LwZ7wxuKb-1">
          <mxGeometry x="80" y="440" width="80" height="40" as="geometry" />
        </mxCell>
        <mxCell id="qMlhNRbrw62LwZ7wxuKb-28" value="" style="ellipse;shape=endState;fillColor=#000000;strokeColor=#000000;" vertex="1" parent="qMlhNRbrw62LwZ7wxuKb-1">
          <mxGeometry x="105" y="1240" width="30" height="30" as="geometry" />
        </mxCell>
        <mxCell id="qMlhNRbrw62LwZ7wxuKb-78" value="Order Now" style="rounded=1;whiteSpace=wrap;html=1;fontSize=10;" vertex="1" parent="qMlhNRbrw62LwZ7wxuKb-1">
          <mxGeometry x="80" y="320" width="80" height="40" as="geometry" />
        </mxCell>
        <mxCell id="qMlhNRbrw62LwZ7wxuKb-81" value="Pilih Metode Pembayaran" style="rounded=1;whiteSpace=wrap;html=1;fontSize=10;" vertex="1" parent="qMlhNRbrw62LwZ7wxuKb-1">
          <mxGeometry x="80" y="580" width="80" height="40" as="geometry" />
        </mxCell>
        <mxCell id="qMlhNRbrw62LwZ7wxuKb-86" value="Input Form Pembayaran" style="rounded=1;whiteSpace=wrap;html=1;fontSize=10;" vertex="1" parent="qMlhNRbrw62LwZ7wxuKb-1">
          <mxGeometry x="80" y="720" width="80" height="40" as="geometry" />
        </mxCell>
        <mxCell id="qMlhNRbrw62LwZ7wxuKb-101" value="" style="edgeStyle=orthogonalEdgeStyle;rounded=0;orthogonalLoop=1;jettySize=auto;html=1;" edge="1" parent="qMlhNRbrw62LwZ7wxuKb-1" source="qMlhNRbrw62LwZ7wxuKb-98" target="qMlhNRbrw62LwZ7wxuKb-100">
          <mxGeometry relative="1" as="geometry" />
        </mxCell>
        <mxCell id="qMlhNRbrw62LwZ7wxuKb-98" value="Lihat Histori Transaksi" style="rounded=1;whiteSpace=wrap;html=1;fontSize=10;" vertex="1" parent="qMlhNRbrw62LwZ7wxuKb-1">
          <mxGeometry x="80" y="1120" width="80" height="40" as="geometry" />
        </mxCell>
        <mxCell id="qMlhNRbrw62LwZ7wxuKb-102" value="" style="edgeStyle=orthogonalEdgeStyle;rounded=0;orthogonalLoop=1;jettySize=auto;html=1;" edge="1" parent="qMlhNRbrw62LwZ7wxuKb-1" source="qMlhNRbrw62LwZ7wxuKb-100" target="qMlhNRbrw62LwZ7wxuKb-28">
          <mxGeometry relative="1" as="geometry" />
        </mxCell>
        <mxCell id="qMlhNRbrw62LwZ7wxuKb-100" value="Unduh Invoice" style="rounded=1;whiteSpace=wrap;html=1;fontSize=10;" vertex="1" parent="qMlhNRbrw62LwZ7wxuKb-1">
          <mxGeometry x="80" y="1180" width="80" height="40" as="geometry" />
        </mxCell>
        <mxCell id="qMlhNRbrw62LwZ7wxuKb-29" value="Sistem" style="swimlane;whiteSpace=wrap;startSize=23;" vertex="1" parent="1">
          <mxGeometry x="280" y="120" width="240" height="1280" as="geometry" />
        </mxCell>
        <mxCell id="qMlhNRbrw62LwZ7wxuKb-30" style="edgeStyle=orthogonalEdgeStyle;rounded=0;orthogonalLoop=1;jettySize=auto;html=1;exitX=0.5;exitY=1;exitDx=0;exitDy=0;" edge="1" parent="qMlhNRbrw62LwZ7wxuKb-29" source="qMlhNRbrw62LwZ7wxuKb-32" target="qMlhNRbrw62LwZ7wxuKb-35">
          <mxGeometry relative="1" as="geometry" />
        </mxCell>
        <mxCell id="qMlhNRbrw62LwZ7wxuKb-31" value="Y" style="edgeLabel;html=1;align=center;verticalAlign=middle;resizable=0;points=[];" vertex="1" connectable="0" parent="qMlhNRbrw62LwZ7wxuKb-30">
          <mxGeometry x="0.4902" y="1" relative="1" as="geometry">
            <mxPoint x="-1" y="-16" as="offset" />
          </mxGeometry>
        </mxCell>
        <mxCell id="qMlhNRbrw62LwZ7wxuKb-32" value="Valid?" style="rhombus;whiteSpace=wrap;html=1;" vertex="1" parent="qMlhNRbrw62LwZ7wxuKb-29">
          <mxGeometry x="80" y="140" width="80" height="80" as="geometry" />
        </mxCell>
        <mxCell id="qMlhNRbrw62LwZ7wxuKb-33" style="edgeStyle=orthogonalEdgeStyle;rounded=0;orthogonalLoop=1;jettySize=auto;html=1;exitX=0.5;exitY=1;exitDx=0;exitDy=0;entryX=0.5;entryY=0;entryDx=0;entryDy=0;" edge="1" parent="qMlhNRbrw62LwZ7wxuKb-29" source="qMlhNRbrw62LwZ7wxuKb-34" target="qMlhNRbrw62LwZ7wxuKb-32">
          <mxGeometry relative="1" as="geometry" />
        </mxCell>
        <mxCell id="qMlhNRbrw62LwZ7wxuKb-34" value="Verifikasi Data" style="rounded=1;whiteSpace=wrap;html=1;fontSize=10;" vertex="1" parent="qMlhNRbrw62LwZ7wxuKb-29">
          <mxGeometry x="80" y="80" width="80" height="40" as="geometry" />
        </mxCell>
        <mxCell id="qMlhNRbrw62LwZ7wxuKb-35" value="Tampil Dashboard" style="rounded=1;whiteSpace=wrap;html=1;fontSize=10;" vertex="1" parent="qMlhNRbrw62LwZ7wxuKb-29">
          <mxGeometry x="80" y="260" width="80" height="40" as="geometry" />
        </mxCell>
        <mxCell id="qMlhNRbrw62LwZ7wxuKb-38" value="Tersedia?" style="rhombus;whiteSpace=wrap;html=1;" vertex="1" parent="qMlhNRbrw62LwZ7wxuKb-29">
          <mxGeometry x="80" y="500" width="80" height="80" as="geometry" />
        </mxCell>
        <mxCell id="qMlhNRbrw62LwZ7wxuKb-39" style="edgeStyle=orthogonalEdgeStyle;rounded=0;orthogonalLoop=1;jettySize=auto;html=1;exitX=0.5;exitY=1;exitDx=0;exitDy=0;entryX=0.5;entryY=0;entryDx=0;entryDy=0;" edge="1" parent="qMlhNRbrw62LwZ7wxuKb-29" source="qMlhNRbrw62LwZ7wxuKb-40" target="qMlhNRbrw62LwZ7wxuKb-38">
          <mxGeometry relative="1" as="geometry" />
        </mxCell>
        <mxCell id="qMlhNRbrw62LwZ7wxuKb-40" value="Periksa Ketersediaan" style="rounded=1;whiteSpace=wrap;html=1;fontSize=10;" vertex="1" parent="qMlhNRbrw62LwZ7wxuKb-29">
          <mxGeometry x="80" y="440" width="80" height="40" as="geometry" />
        </mxCell>
        <mxCell id="qMlhNRbrw62LwZ7wxuKb-41" value="Tampil Form Pembayaran" style="rounded=1;whiteSpace=wrap;html=1;fontSize=10;" vertex="1" parent="qMlhNRbrw62LwZ7wxuKb-29">
          <mxGeometry x="80" y="650" width="80" height="40" as="geometry" />
        </mxCell>
        <mxCell id="qMlhNRbrw62LwZ7wxuKb-42" style="edgeStyle=orthogonalEdgeStyle;rounded=0;orthogonalLoop=1;jettySize=auto;html=1;exitX=0.5;exitY=1;exitDx=0;exitDy=0;entryX=0.5;entryY=0;entryDx=0;entryDy=0;" edge="1" parent="qMlhNRbrw62LwZ7wxuKb-29" source="qMlhNRbrw62LwZ7wxuKb-44" target="qMlhNRbrw62LwZ7wxuKb-47">
          <mxGeometry relative="1" as="geometry" />
        </mxCell>
        <mxCell id="qMlhNRbrw62LwZ7wxuKb-43" value="Y" style="edgeLabel;html=1;align=center;verticalAlign=middle;resizable=0;points=[];fontSize=8;" vertex="1" connectable="0" parent="qMlhNRbrw62LwZ7wxuKb-42">
          <mxGeometry x="-0.451" y="1" relative="1" as="geometry">
            <mxPoint x="-1" as="offset" />
          </mxGeometry>
        </mxCell>
        <mxCell id="qMlhNRbrw62LwZ7wxuKb-44" value="Valid?" style="rhombus;whiteSpace=wrap;html=1;" vertex="1" parent="qMlhNRbrw62LwZ7wxuKb-29">
          <mxGeometry x="80" y="820" width="80" height="80" as="geometry" />
        </mxCell>
        <mxCell id="qMlhNRbrw62LwZ7wxuKb-45" style="edgeStyle=orthogonalEdgeStyle;rounded=0;orthogonalLoop=1;jettySize=auto;html=1;exitX=0.5;exitY=1;exitDx=0;exitDy=0;entryX=0.5;entryY=0;entryDx=0;entryDy=0;" edge="1" parent="qMlhNRbrw62LwZ7wxuKb-29" source="qMlhNRbrw62LwZ7wxuKb-46" target="qMlhNRbrw62LwZ7wxuKb-44">
          <mxGeometry relative="1" as="geometry" />
        </mxCell>
        <mxCell id="qMlhNRbrw62LwZ7wxuKb-46" value="Validasi Pembayaran" style="rounded=1;whiteSpace=wrap;html=1;fontSize=10;" vertex="1" parent="qMlhNRbrw62LwZ7wxuKb-29">
          <mxGeometry x="80" y="760" width="80" height="40" as="geometry" />
        </mxCell>
        <mxCell id="qMlhNRbrw62LwZ7wxuKb-95" style="edgeStyle=orthogonalEdgeStyle;rounded=0;orthogonalLoop=1;jettySize=auto;html=1;exitX=0.5;exitY=1;exitDx=0;exitDy=0;entryX=0.5;entryY=0;entryDx=0;entryDy=0;" edge="1" parent="qMlhNRbrw62LwZ7wxuKb-29" source="qMlhNRbrw62LwZ7wxuKb-47" target="qMlhNRbrw62LwZ7wxuKb-92">
          <mxGeometry relative="1" as="geometry" />
        </mxCell>
        <mxCell id="qMlhNRbrw62LwZ7wxuKb-47" value="Payment Gateway Proses" style="rounded=1;whiteSpace=wrap;html=1;fontSize=10;" vertex="1" parent="qMlhNRbrw62LwZ7wxuKb-29">
          <mxGeometry x="80" y="920" width="80" height="40" as="geometry" />
        </mxCell>
        <mxCell id="qMlhNRbrw62LwZ7wxuKb-51" value="Tampil Form Konfirmasi Pesanan" style="rounded=1;whiteSpace=wrap;html=1;fontSize=10;" vertex="1" parent="qMlhNRbrw62LwZ7wxuKb-29">
          <mxGeometry x="80" y="320" width="80" height="40" as="geometry" />
        </mxCell>
        <mxCell id="qMlhNRbrw62LwZ7wxuKb-92" value="Sukses?" style="rhombus;whiteSpace=wrap;html=1;" vertex="1" parent="qMlhNRbrw62LwZ7wxuKb-29">
          <mxGeometry x="80" y="980" width="80" height="80" as="geometry" />
        </mxCell>
        <mxCell id="qMlhNRbrw62LwZ7wxuKb-26" value="Tampil Pesan Status Sukses" style="rounded=1;whiteSpace=wrap;html=1;fontSize=10;" vertex="1" parent="qMlhNRbrw62LwZ7wxuKb-29">
          <mxGeometry x="80" y="1080" width="80" height="40" as="geometry" />
        </mxCell>
        <mxCell id="qMlhNRbrw62LwZ7wxuKb-96" style="edgeStyle=orthogonalEdgeStyle;rounded=0;orthogonalLoop=1;jettySize=auto;html=1;entryX=0.5;entryY=0;entryDx=0;entryDy=0;exitX=0.5;exitY=1;exitDx=0;exitDy=0;" edge="1" parent="qMlhNRbrw62LwZ7wxuKb-29" source="qMlhNRbrw62LwZ7wxuKb-92" target="qMlhNRbrw62LwZ7wxuKb-26">
          <mxGeometry relative="1" as="geometry" />
        </mxCell>
        <mxCell id="qMlhNRbrw62LwZ7wxuKb-97" value="Y" style="edgeLabel;html=1;align=center;verticalAlign=middle;resizable=0;points=[];" vertex="1" connectable="0" parent="qMlhNRbrw62LwZ7wxuKb-96">
          <mxGeometry x="-0.525" y="-1" relative="1" as="geometry">
            <mxPoint as="offset" />
          </mxGeometry>
        </mxCell>
        <mxCell id="qMlhNRbrw62LwZ7wxuKb-56" style="edgeStyle=orthogonalEdgeStyle;rounded=0;orthogonalLoop=1;jettySize=auto;html=1;entryX=1;entryY=0.5;entryDx=0;entryDy=0;" edge="1" parent="1" source="qMlhNRbrw62LwZ7wxuKb-32" target="qMlhNRbrw62LwZ7wxuKb-2">
          <mxGeometry relative="1" as="geometry">
            <Array as="points">
              <mxPoint x="480" y="300" />
              <mxPoint x="480" y="165" />
            </Array>
          </mxGeometry>
        </mxCell>
        <mxCell id="qMlhNRbrw62LwZ7wxuKb-57" value="N" style="edgeLabel;html=1;align=center;verticalAlign=middle;resizable=0;points=[];" vertex="1" connectable="0" parent="qMlhNRbrw62LwZ7wxuKb-56">
          <mxGeometry x="-0.7449" y="-1" relative="1" as="geometry">
            <mxPoint x="-2" as="offset" />
          </mxGeometry>
        </mxCell>
        <mxCell id="qMlhNRbrw62LwZ7wxuKb-58" style="edgeStyle=orthogonalEdgeStyle;rounded=0;orthogonalLoop=1;jettySize=auto;html=1;entryX=1;entryY=0.5;entryDx=0;entryDy=0;" edge="1" parent="1" source="qMlhNRbrw62LwZ7wxuKb-35" target="qMlhNRbrw62LwZ7wxuKb-7">
          <mxGeometry relative="1" as="geometry" />
        </mxCell>
        <mxCell id="qMlhNRbrw62LwZ7wxuKb-59" style="edgeStyle=orthogonalEdgeStyle;rounded=0;orthogonalLoop=1;jettySize=auto;html=1;entryX=0;entryY=0.5;entryDx=0;entryDy=0;" edge="1" parent="1" source="qMlhNRbrw62LwZ7wxuKb-13" target="qMlhNRbrw62LwZ7wxuKb-40">
          <mxGeometry relative="1" as="geometry" />
        </mxCell>
        <mxCell id="qMlhNRbrw62LwZ7wxuKb-60" style="edgeStyle=orthogonalEdgeStyle;rounded=0;orthogonalLoop=1;jettySize=auto;html=1;entryX=1;entryY=0.5;entryDx=0;entryDy=0;exitX=1;exitY=0.5;exitDx=0;exitDy=0;" edge="1" parent="1" source="qMlhNRbrw62LwZ7wxuKb-38" target="qMlhNRbrw62LwZ7wxuKb-12">
          <mxGeometry relative="1" as="geometry">
            <Array as="points">
              <mxPoint x="480" y="660" />
              <mxPoint x="480" y="520" />
            </Array>
          </mxGeometry>
        </mxCell>
        <mxCell id="qMlhNRbrw62LwZ7wxuKb-61" value="N" style="edgeLabel;html=1;align=center;verticalAlign=middle;resizable=0;points=[];" vertex="1" connectable="0" parent="qMlhNRbrw62LwZ7wxuKb-60">
          <mxGeometry x="-0.6245" relative="1" as="geometry">
            <mxPoint x="-1" as="offset" />
          </mxGeometry>
        </mxCell>
        <mxCell id="qMlhNRbrw62LwZ7wxuKb-70" style="edgeStyle=orthogonalEdgeStyle;rounded=0;orthogonalLoop=1;jettySize=auto;html=1;exitX=0.5;exitY=1;exitDx=0;exitDy=0;entryX=0.5;entryY=0;entryDx=0;entryDy=0;" edge="1" parent="1" source="qMlhNRbrw62LwZ7wxuKb-51" target="qMlhNRbrw62LwZ7wxuKb-12">
          <mxGeometry relative="1" as="geometry">
            <Array as="points">
              <mxPoint x="400" y="490" />
              <mxPoint x="160" y="490" />
            </Array>
          </mxGeometry>
        </mxCell>
        <mxCell id="qMlhNRbrw62LwZ7wxuKb-77" style="edgeStyle=orthogonalEdgeStyle;rounded=0;orthogonalLoop=1;jettySize=auto;html=1;entryX=0;entryY=0.5;entryDx=0;entryDy=0;" edge="1" parent="1" source="qMlhNRbrw62LwZ7wxuKb-5" target="qMlhNRbrw62LwZ7wxuKb-34">
          <mxGeometry relative="1" as="geometry" />
        </mxCell>
        <mxCell id="qMlhNRbrw62LwZ7wxuKb-80" style="edgeStyle=orthogonalEdgeStyle;rounded=0;orthogonalLoop=1;jettySize=auto;html=1;" edge="1" parent="1" source="qMlhNRbrw62LwZ7wxuKb-78" target="qMlhNRbrw62LwZ7wxuKb-51">
          <mxGeometry relative="1" as="geometry" />
        </mxCell>
        <mxCell id="qMlhNRbrw62LwZ7wxuKb-82" style="edgeStyle=orthogonalEdgeStyle;rounded=0;orthogonalLoop=1;jettySize=auto;html=1;entryX=0.5;entryY=0;entryDx=0;entryDy=0;" edge="1" parent="1" source="qMlhNRbrw62LwZ7wxuKb-38" target="qMlhNRbrw62LwZ7wxuKb-81">
          <mxGeometry relative="1" as="geometry" />
        </mxCell>
        <mxCell id="qMlhNRbrw62LwZ7wxuKb-83" value="Y" style="edgeLabel;html=1;align=center;verticalAlign=middle;resizable=0;points=[];" vertex="1" connectable="0" parent="qMlhNRbrw62LwZ7wxuKb-82">
          <mxGeometry x="-0.4875" y="1" relative="1" as="geometry">
            <mxPoint as="offset" />
          </mxGeometry>
        </mxCell>
        <mxCell id="qMlhNRbrw62LwZ7wxuKb-85" style="edgeStyle=orthogonalEdgeStyle;rounded=0;orthogonalLoop=1;jettySize=auto;html=1;entryX=0.5;entryY=0;entryDx=0;entryDy=0;" edge="1" parent="1" source="qMlhNRbrw62LwZ7wxuKb-81" target="qMlhNRbrw62LwZ7wxuKb-41">
          <mxGeometry relative="1" as="geometry">
            <Array as="points">
              <mxPoint x="160" y="750" />
              <mxPoint x="400" y="750" />
            </Array>
          </mxGeometry>
        </mxCell>
        <mxCell id="qMlhNRbrw62LwZ7wxuKb-87" style="edgeStyle=orthogonalEdgeStyle;rounded=0;orthogonalLoop=1;jettySize=auto;html=1;exitX=0.5;exitY=1;exitDx=0;exitDy=0;entryX=0.5;entryY=0;entryDx=0;entryDy=0;" edge="1" parent="1" source="qMlhNRbrw62LwZ7wxuKb-41" target="qMlhNRbrw62LwZ7wxuKb-86">
          <mxGeometry relative="1" as="geometry">
            <Array as="points">
              <mxPoint x="400" y="820" />
              <mxPoint x="160" y="820" />
            </Array>
          </mxGeometry>
        </mxCell>
        <mxCell id="qMlhNRbrw62LwZ7wxuKb-89" style="edgeStyle=orthogonalEdgeStyle;rounded=0;orthogonalLoop=1;jettySize=auto;html=1;exitX=0.5;exitY=1;exitDx=0;exitDy=0;entryX=0;entryY=0.5;entryDx=0;entryDy=0;" edge="1" parent="1" source="qMlhNRbrw62LwZ7wxuKb-86" target="qMlhNRbrw62LwZ7wxuKb-46">
          <mxGeometry relative="1" as="geometry" />
        </mxCell>
        <mxCell id="qMlhNRbrw62LwZ7wxuKb-90" style="edgeStyle=orthogonalEdgeStyle;rounded=0;orthogonalLoop=1;jettySize=auto;html=1;entryX=1;entryY=0.5;entryDx=0;entryDy=0;exitX=1;exitY=0.5;exitDx=0;exitDy=0;" edge="1" parent="1" source="qMlhNRbrw62LwZ7wxuKb-44" target="qMlhNRbrw62LwZ7wxuKb-86">
          <mxGeometry relative="1" as="geometry">
            <Array as="points">
              <mxPoint x="480" y="980" />
              <mxPoint x="480" y="860" />
            </Array>
          </mxGeometry>
        </mxCell>
        <mxCell id="qMlhNRbrw62LwZ7wxuKb-91" value="N" style="edgeLabel;html=1;align=center;verticalAlign=middle;resizable=0;points=[];" vertex="1" connectable="0" parent="qMlhNRbrw62LwZ7wxuKb-90">
          <mxGeometry x="-0.6364" relative="1" as="geometry">
            <mxPoint as="offset" />
          </mxGeometry>
        </mxCell>
        <mxCell id="qMlhNRbrw62LwZ7wxuKb-93" style="edgeStyle=orthogonalEdgeStyle;rounded=0;orthogonalLoop=1;jettySize=auto;html=1;entryX=1;entryY=0.5;entryDx=0;entryDy=0;" edge="1" parent="1" source="qMlhNRbrw62LwZ7wxuKb-92" target="qMlhNRbrw62LwZ7wxuKb-81">
          <mxGeometry relative="1" as="geometry">
            <Array as="points">
              <mxPoint x="500" y="1140" />
              <mxPoint x="500" y="720" />
            </Array>
          </mxGeometry>
        </mxCell>
        <mxCell id="qMlhNRbrw62LwZ7wxuKb-94" value="N" style="edgeLabel;html=1;align=center;verticalAlign=middle;resizable=0;points=[];" vertex="1" connectable="0" parent="qMlhNRbrw62LwZ7wxuKb-93">
          <mxGeometry x="-0.6564" y="-1" relative="1" as="geometry">
            <mxPoint as="offset" />
          </mxGeometry>
        </mxCell>
        <mxCell id="qMlhNRbrw62LwZ7wxuKb-99" style="edgeStyle=orthogonalEdgeStyle;rounded=0;orthogonalLoop=1;jettySize=auto;html=1;" edge="1" parent="1" source="qMlhNRbrw62LwZ7wxuKb-26" target="qMlhNRbrw62LwZ7wxuKb-98">
          <mxGeometry relative="1" as="geometry">
            <Array as="points">
              <mxPoint x="400" y="1260" />
            </Array>
          </mxGeometry>
        </mxCell>
      </root>
    </mxGraphModel>
  </diagram>
</mxfile>
